<?xml version="1.0" encoding="UTF-8" standalone="no"?>
<!-- Created with Inkscape (http://www.inkscape.org/) -->

<svg
   width="512"
   height="288"
   viewBox="0 0 135.46666 76.2"
   version="1.1"
   id="svg1"
   xml:space="preserve"
   sodipodi:docname="infinite.svg"
   inkscape:version="1.4.2 (f4327f4, 2025-05-13)"
   xmlns:inkscape="http://www.inkscape.org/namespaces/inkscape"
   xmlns:sodipodi="http://sodipodi.sourceforge.net/DTD/sodipodi-0.dtd"
   xmlns="http://www.w3.org/2000/svg"
   xmlns:svg="http://www.w3.org/2000/svg"><sodipodi:namedview
     id="namedview1"
     pagecolor="#505050"
     bordercolor="#eeeeee"
     borderopacity="1"
     inkscape:showpageshadow="0"
     inkscape:pageopacity="0"
     inkscape:pagecheckerboard="0"
     inkscape:deskcolor="#505050"
     inkscape:document-units="mm"
     inkscape:zoom="0.5198127"
     inkscape:cx="26.932778"
     inkscape:cy="378.02078"
     inkscape:window-width="2560"
     inkscape:window-height="1406"
     inkscape:window-x="-11"
     inkscape:window-y="-11"
     inkscape:window-maximized="1"
     inkscape:current-layer="layer1" /><defs
     id="defs1" /><g
     inkscape:label="Layer 1"
     inkscape:groupmode="layer"
     id="layer1"><path
       id="rect1"
       style="fill:#000000;stroke-width:0.264583"
       d="M 0 0 L 0 76.2 L 135.46667 76.2 L 135.46667 0 L 0 0 z M 40.379964 36.077901 L 44.782796 36.077901 L 44.782796 36.22828 L 44.274817 36.256702 C 44.0804 36.275516 43.948479 36.32252 43.879492 36.397778 C 43.816777 36.466765 43.77635 36.607777 43.757536 36.821008 L 43.738416 37.25354 L 43.738416 41.759725 L 43.757536 42.192773 C 43.77635 42.399733 43.820324 42.540745 43.889311 42.616003 C 43.964569 42.68499 44.099004 42.731994 44.29342 42.75708 L 44.782796 42.784985 L 44.782796 42.935881 L 40.352059 42.935881 L 40.352059 42.784985 L 40.530859 42.784985 C 40.606117 42.778714 40.728432 42.766593 40.897762 42.747778 C 41.073364 42.722692 41.195678 42.669111 41.264665 42.587581 C 41.339923 42.506052 41.386927 42.36807 41.405741 42.173653 L 41.424345 41.741121 L 41.424345 37.27266 L 41.405741 36.839612 C 41.386927 36.638924 41.342953 36.500942 41.273966 36.425684 C 41.211251 36.344154 41.08236 36.291089 40.887944 36.266003 L 40.379964 36.22828 L 40.379964 36.077901 z M 45.06495 36.077901 L 48.658529 36.077901 L 52.035583 40.405286 L 52.073307 40.405286 L 52.073307 37.404435 L 52.054704 36.952783 C 52.035889 36.752095 51.982308 36.601475 51.894507 36.501131 C 51.812977 36.394516 51.687633 36.328813 51.518302 36.303727 C 51.348972 36.27237 51.21099 36.253671 51.104374 36.2474 C 51.00403 36.241128 50.910022 36.234551 50.822221 36.22828 L 50.822221 36.077901 L 53.531616 36.077901 L 53.531616 36.22828 C 53.450087 36.234551 53.359109 36.241128 53.258765 36.2474 C 53.164692 36.253671 53.02974 36.27237 52.854138 36.303727 C 52.678536 36.328813 52.543584 36.401093 52.449512 36.520251 C 52.361711 36.633138 52.308646 36.789819 52.289832 36.990507 L 52.270711 37.442159 L 52.270711 42.935881 L 51.122978 42.935881 L 46.655033 37.216333 L 46.61731 37.216333 L 46.61731 41.609347 L 46.635913 42.060999 C 46.654728 42.267958 46.704762 42.421608 46.786292 42.521952 C 46.874093 42.622296 47.002984 42.687999 47.172314 42.719356 C 47.347916 42.744442 47.494989 42.76011 47.614148 42.766382 C 47.739578 42.772653 47.824495 42.778714 47.868396 42.784985 L 47.868396 42.935881 L 45.159001 42.935881 L 45.159001 42.784985 C 45.24053 42.778714 45.331508 42.772653 45.431852 42.766382 C 45.532196 42.76011 45.707575 42.738382 45.958435 42.700753 C 46.215567 42.656852 46.363156 42.44356 46.400785 42.060999 L 46.419389 41.609347 L 46.419389 37.328988 L 46.400785 36.896456 C 46.319256 36.764754 46.222217 36.64244 46.10933 36.529553 C 45.996443 36.416666 45.871099 36.338326 45.733126 36.294425 C 45.601424 36.250525 45.472533 36.22828 45.347103 36.22828 L 45.06495 36.22828 L 45.06495 36.077901 z M 53.794649 36.077901 L 60.840731 36.077901 L 60.840731 39.125777 L 60.690352 39.125777 C 60.426949 38.555071 60.182321 38.075422 59.956547 37.686589 C 59.730773 37.297756 59.451778 36.96821 59.119389 36.698535 C 58.793271 36.422589 58.40763 36.284607 57.962354 36.284607 L 57.247152 36.256702 L 57.247152 39.276156 L 57.6802 39.257552 C 58.043947 39.219923 58.316881 39.047575 58.498755 38.740271 C 58.6869 38.432967 58.780908 38.075116 58.780908 37.667468 L 58.959709 37.667468 L 58.959709 41.092065 L 58.780908 41.092065 C 58.780908 40.671875 58.68993 40.304932 58.508057 39.991357 C 58.326183 39.677782 58.050219 39.501887 57.6802 39.464258 L 57.247152 39.445654 L 57.247152 41.712699 L 57.266272 42.145748 C 57.285086 42.346436 57.335121 42.490479 57.41665 42.57828 C 57.49818 42.666081 57.604826 42.719145 57.736528 42.73796 C 57.874501 42.756774 57.996815 42.769412 58.10343 42.775684 C 58.216317 42.775684 58.316386 42.778714 58.404187 42.784985 L 58.404187 42.935881 L 53.823071 42.935881 L 53.823071 42.784985 C 53.904601 42.784985 53.998609 42.781955 54.105225 42.775684 C 54.21184 42.763141 54.331124 42.750503 54.462826 42.73796 C 54.600799 42.719145 54.704414 42.672141 54.773401 42.596883 C 54.848659 42.515354 54.895663 42.374341 54.914478 42.173653 L 54.933081 41.741121 L 54.933081 37.281962 L 54.914478 36.84943 C 54.895663 36.648742 54.848659 36.507213 54.773401 36.425684 C 54.698143 36.344154 54.591497 36.29412 54.453524 36.275305 C 54.321822 36.256491 54.199508 36.2474 54.086621 36.2474 C 53.980006 36.241128 53.88245 36.234551 53.794649 36.22828 L 53.794649 36.077901 z M 61.264478 36.077901 L 65.666793 36.077901 L 65.666793 36.22828 L 65.158813 36.256702 C 64.964397 36.275516 64.832992 36.32252 64.764006 36.397778 C 64.701291 36.466765 64.660347 36.607777 64.641532 36.821008 L 64.622412 37.25354 L 64.622412 41.759725 L 64.641532 42.192773 C 64.660347 42.399733 64.704321 42.540745 64.773307 42.616003 C 64.848565 42.68499 64.983 42.731994 65.177417 42.75708 L 65.666793 42.784985 L 65.666793 42.935881 L 61.236056 42.935881 L 61.236056 42.784985 L 61.414856 42.784985 C 61.490114 42.778714 61.612428 42.766593 61.781759 42.747778 C 61.957361 42.722692 62.079675 42.669111 62.148661 42.587581 C 62.223919 42.506052 62.270923 42.36807 62.289738 42.173653 L 62.308341 41.741121 L 62.308341 37.27266 L 62.289738 36.839612 C 62.270923 36.638924 62.22695 36.500942 62.157963 36.425684 C 62.095248 36.344154 61.966873 36.291089 61.772457 36.266003 L 61.264478 36.22828 L 61.264478 36.077901 z M 65.948946 36.077901 L 69.542525 36.077901 L 72.91958 40.405286 L 72.957304 40.405286 L 72.957304 37.404435 L 72.9387 36.952783 C 72.919886 36.752095 72.866304 36.601475 72.778503 36.501131 C 72.696974 36.394516 72.571629 36.328813 72.402299 36.303727 C 72.232968 36.27237 72.094986 36.253671 71.988371 36.2474 C 71.888027 36.241128 71.794018 36.234551 71.706217 36.22828 L 71.706217 36.077901 L 74.415613 36.077901 L 74.415613 36.22828 C 74.334083 36.234551 74.243105 36.241128 74.142761 36.2474 C 74.048689 36.253671 73.913737 36.27237 73.738135 36.303727 C 73.562533 36.328813 73.427581 36.401093 73.333508 36.520251 C 73.245707 36.633138 73.192643 36.789819 73.173828 36.990507 L 73.155225 37.442159 L 73.155225 42.935881 L 72.007491 42.935881 L 67.53903 37.216333 L 67.501306 37.216333 L 67.501306 41.609347 L 67.51991 42.060999 C 67.538724 42.267958 67.589275 42.421608 67.670805 42.521952 C 67.758606 42.622296 67.886981 42.687999 68.056311 42.719356 C 68.231913 42.744442 68.379503 42.76011 68.498661 42.766382 C 68.624091 42.772653 68.708492 42.778714 68.752393 42.784985 L 68.752393 42.935881 L 66.042997 42.935881 L 66.042997 42.784985 C 66.124527 42.778714 66.215505 42.772653 66.315849 42.766382 C 66.416193 42.76011 66.592088 42.738382 66.842948 42.700753 C 67.10008 42.656852 67.247153 42.44356 67.284782 42.060999 L 67.303902 41.609347 L 67.303902 37.328988 L 67.284782 36.896456 C 67.203252 36.764754 67.106214 36.64244 66.993327 36.529553 C 66.88044 36.416666 66.755095 36.338326 66.617122 36.294425 C 66.485421 36.250525 66.356529 36.22828 66.231099 36.22828 L 65.948946 36.22828 L 65.948946 36.077901 z M 74.773214 36.077901 L 79.175529 36.077901 L 79.175529 36.22828 L 78.66755 36.256702 C 78.473133 36.275516 78.341728 36.32252 78.272742 36.397778 C 78.210027 36.466765 78.169083 36.607777 78.150269 36.821008 L 78.131665 37.25354 L 78.131665 41.759725 L 78.150269 42.192773 C 78.169083 42.399733 78.213057 42.540745 78.282043 42.616003 C 78.357301 42.68499 78.492253 42.731994 78.68667 42.75708 L 79.175529 42.784985 L 79.175529 42.935881 L 74.744792 42.935881 L 74.744792 42.784985 L 74.923592 42.784985 C 74.99885 42.778714 75.121164 42.766593 75.290495 42.747778 C 75.466097 42.722692 75.588411 42.669111 75.657397 42.587581 C 75.732655 42.506052 75.77966 42.36807 75.798474 42.173653 L 75.817078 41.741121 L 75.817078 37.27266 L 75.798474 36.839612 C 75.77966 36.638924 75.735686 36.500942 75.666699 36.425684 C 75.603984 36.344154 75.47561 36.291089 75.281193 36.266003 L 74.773214 36.22828 L 74.773214 36.077901 z M 79.551733 36.077901 L 86.983838 36.077901 L 86.983838 39.097355 L 86.823641 39.097355 C 86.65431 38.714794 86.450626 38.310455 86.212309 37.883993 C 85.980263 37.451259 85.735635 37.075226 85.478503 36.755379 C 85.221372 36.435533 84.995442 36.275305 84.801025 36.275305 L 84.424821 36.256702 L 84.424821 41.741121 L 84.443941 42.173653 C 84.462756 42.374341 84.503183 42.515354 84.565898 42.596883 C 84.634884 42.672141 84.7385 42.719145 84.876473 42.73796 C 85.014446 42.750503 85.13979 42.76011 85.252677 42.766382 C 85.365564 42.772653 85.46615 42.778714 85.553951 42.784985 L 85.553951 42.935881 L 80.953715 42.935881 L 80.953715 42.784985 L 81.574349 42.75708 C 81.762494 42.738266 81.891385 42.691261 81.960372 42.616003 C 82.029358 42.540745 82.072816 42.399733 82.09163 42.192773 L 82.11075 41.759725 L 82.11075 36.256702 L 81.743848 36.275305 C 81.54316 36.275305 81.32026 36.425925 81.075671 36.726957 C 80.831083 37.021718 80.583424 37.398268 80.332564 37.856087 C 80.087976 38.307635 79.881261 38.721065 79.71193 39.097355 L 79.551733 39.097355 L 79.551733 36.077901 z M 87.265991 36.077901 L 94.500175 36.077901 L 94.500175 38.862227 L 94.34928 38.862227 C 94.029433 38.159819 93.640762 37.570494 93.182943 37.09386 C 92.725123 36.610954 92.339482 36.353688 92.025907 36.322331 C 91.718604 36.290973 91.458308 36.272275 91.245076 36.266003 C 91.031845 36.259732 90.890833 36.256702 90.821847 36.256702 L 90.737097 36.256702 L 90.718494 39.342301 L 91.113302 39.323181 C 91.477049 39.285552 91.749983 39.116234 91.931856 38.815202 C 92.120001 38.507898 92.21401 38.147533 92.21401 37.733614 L 92.39281 37.733614 L 92.39281 41.157694 L 92.21401 41.157694 C 92.21401 40.737504 92.120001 40.370562 91.931856 40.056986 C 91.749983 39.743411 91.477049 39.568033 91.113302 39.530404 L 90.718494 39.511283 L 90.718494 42.747778 C 90.981897 42.741507 91.251284 42.73796 91.52723 42.73796 C 91.803176 42.731688 92.094808 42.70996 92.402112 42.672331 C 92.709415 42.62843 93.088996 42.318099 93.540544 41.741121 C 93.992092 41.157872 94.324668 40.558939 94.537899 39.944332 L 94.688277 39.944332 L 94.688277 42.935881 L 87.293896 42.935881 L 87.293896 42.784985 C 87.375426 42.784985 87.469951 42.781955 87.576567 42.775684 C 87.683182 42.763141 87.801949 42.750503 87.933651 42.73796 C 88.071624 42.719145 88.17524 42.672141 88.244226 42.596883 C 88.319484 42.515354 88.366488 42.374341 88.385303 42.173653 L 88.403906 41.741121 L 88.403906 37.281962 L 88.385303 36.84943 C 88.366488 36.648742 88.319484 36.507213 88.244226 36.425684 C 88.168968 36.344154 88.062322 36.29412 87.924349 36.275305 C 87.792647 36.256491 87.670333 36.2474 87.557446 36.2474 C 87.450831 36.241128 87.353792 36.234551 87.265991 36.22828 L 87.265991 36.077901 z " /></g></svg>
