<?xml version="1.0" encoding="UTF-8" standalone="no"?>
<!-- Created with Inkscape (http://www.inkscape.org/) -->

<svg
   width="512"
   height="288"
   viewBox="0 0 135.46666 76.2"
   version="1.1"
   id="svg1"
   xml:space="preserve"
   sodipodi:docname="logos.svg"
   inkscape:version="1.4.2 (f4327f4, 2025-05-13)"
   xmlns:inkscape="http://www.inkscape.org/namespaces/inkscape"
   xmlns:sodipodi="http://sodipodi.sourceforge.net/DTD/sodipodi-0.dtd"
   xmlns="http://www.w3.org/2000/svg"
   xmlns:svg="http://www.w3.org/2000/svg"><sodipodi:namedview
     id="namedview1"
     pagecolor="#505050"
     bordercolor="#eeeeee"
     borderopacity="1"
     inkscape:showpageshadow="0"
     inkscape:pageopacity="0"
     inkscape:pagecheckerboard="0"
     inkscape:deskcolor="#505050"
     inkscape:document-units="mm"
     inkscape:zoom="0.73512617"
     inkscape:cx="437.33989"
     inkscape:cy="98.622526"
     inkscape:window-width="2560"
     inkscape:window-height="1406"
     inkscape:window-x="-11"
     inkscape:window-y="-11"
     inkscape:window-maximized="1"
     inkscape:current-layer="layer1"
     showguides="true" /><defs
     id="defs1" /><g
     inkscape:label="Layer 1"
     inkscape:groupmode="layer"
     id="layer1"><path
       id="rect1"
       style="fill:#000000;stroke-width:0.264583"
       d="m 122.41388,156.51671 v 76.2 h 135.46667 v -76.2 z m 40.37997,36.0779 h 4.40283 v 0.15038 l -0.50798,0.0284 c -0.19442,0.0188 -0.32634,0.0658 -0.39532,0.14108 -0.0627,0.069 -0.10315,0.21 -0.12196,0.42323 l -0.0191,0.43253 v 4.50619 l 0.0191,0.43305 c 0.0188,0.20696 0.0628,0.34797 0.13178,0.42323 0.0752,0.069 0.20969,0.11599 0.4041,0.14107 l 0.48938,0.0279 v 0.15089 h -4.43074 v -0.15089 h 0.1788 c 0.0753,-0.006 0.19758,-0.0184 0.36691,-0.0372 0.1756,-0.0251 0.29791,-0.0787 0.3669,-0.1602 0.0753,-0.0815 0.12226,-0.21951 0.14108,-0.41392 l 0.0186,-0.43254 v -4.46846 l -0.0186,-0.43305 c -0.0188,-0.20068 -0.0628,-0.33867 -0.13178,-0.41392 -0.0627,-0.0815 -0.19161,-0.1346 -0.38602,-0.15968 l -0.50798,-0.0377 z m 4.68498,0 h 3.59358 l 3.37706,4.32739 h 0.0377 v -3.00085 l -0.0186,-0.45165 c -0.0188,-0.20069 -0.0724,-0.35131 -0.1602,-0.45166 -0.0815,-0.10661 -0.20687,-0.17231 -0.3762,-0.1974 -0.16933,-0.0314 -0.30732,-0.0501 -0.41393,-0.0563 -0.10035,-0.006 -0.19435,-0.0128 -0.28215,-0.0191 v -0.15038 h 2.70939 v 0.15038 c -0.0815,0.006 -0.17251,0.0128 -0.27285,0.0191 -0.0941,0.006 -0.22903,0.025 -0.40463,0.0563 -0.1756,0.0251 -0.31055,0.0974 -0.40462,0.21652 -0.0878,0.11289 -0.14087,0.26957 -0.15968,0.47026 l -0.0191,0.45165 v 5.49372 h -1.14774 l -4.46794,-5.71954 h -0.0377 v 4.39301 l 0.0186,0.45165 c 0.0188,0.20696 0.0688,0.36061 0.15038,0.46095 0.0878,0.10035 0.21669,0.16605 0.38602,0.19741 0.1756,0.0251 0.32267,0.0407 0.44183,0.047 0.12543,0.006 0.21035,0.0123 0.25425,0.0186 v 0.15089 h -2.70939 v -0.15089 c 0.0815,-0.006 0.1725,-0.0123 0.27285,-0.0186 0.10034,-0.006 0.27572,-0.028 0.52658,-0.0656 0.25713,-0.0439 0.40472,-0.2572 0.44235,-0.63976 l 0.0186,-0.45165 v -4.28036 l -0.0186,-0.43253 c -0.0815,-0.1317 -0.17857,-0.25402 -0.29146,-0.3669 -0.11288,-0.11289 -0.23823,-0.19123 -0.3762,-0.23513 -0.1317,-0.0439 -0.26059,-0.0661 -0.38602,-0.0661 h -0.28216 z m 8.7297,0 h 7.04609 v 3.04788 h -0.15038 c -0.26341,-0.57071 -0.50803,-1.05036 -0.73381,-1.43919 -0.22577,-0.38883 -0.50477,-0.71838 -0.83716,-0.98805 -0.32611,-0.27595 -0.71176,-0.41393 -1.15703,-0.41393 l -0.7152,-0.0279 v 3.01946 l 0.43304,-0.0186 c 0.36375,-0.0376 0.63669,-0.20997 0.81856,-0.51728 0.18814,-0.3073 0.28215,-0.66515 0.28215,-1.0728 h 0.1788 v 3.4246 h -0.1788 c 0,-0.42019 -0.091,-0.78714 -0.27285,-1.10071 -0.18187,-0.31358 -0.45784,-0.48947 -0.82786,-0.5271 l -0.43304,-0.0186 v 2.26704 l 0.0191,0.43305 c 0.0188,0.20069 0.0688,0.34473 0.15037,0.43253 0.0815,0.0878 0.18818,0.14087 0.31988,0.15968 0.13798,0.0188 0.26029,0.0315 0.3669,0.0377 0.11289,0 0.21296,0.003 0.30076,0.009 v 0.15089 h -4.58111 v -0.15089 c 0.0815,0 0.17553,-0.003 0.28215,-0.009 0.10661,-0.0125 0.2259,-0.0252 0.3576,-0.0377 0.13797,-0.0188 0.24159,-0.0658 0.31058,-0.14107 0.0753,-0.0815 0.12226,-0.22255 0.14107,-0.42323 l 0.0186,-0.43254 v -4.45916 l -0.0186,-0.43253 c -0.0188,-0.20069 -0.0658,-0.34221 -0.14107,-0.42374 -0.0753,-0.0815 -0.18191,-0.13157 -0.31988,-0.15038 -0.1317,-0.0188 -0.25402,-0.0279 -0.3669,-0.0279 -0.10662,-0.006 -0.20418,-0.0128 -0.29198,-0.0191 z m 7.46983,0 h 4.40232 v 0.15038 l -0.50798,0.0284 c -0.19442,0.0188 -0.32582,0.0658 -0.39481,0.14108 -0.0627,0.069 -0.10366,0.21 -0.12247,0.42323 l -0.0191,0.43253 v 4.50619 l 0.0191,0.43305 c 0.0188,0.20696 0.0628,0.34797 0.13177,0.42323 0.0753,0.069 0.20969,0.11599 0.40411,0.14107 l 0.48938,0.0279 v 0.15089 h -4.43074 v -0.15089 h 0.1788 c 0.0753,-0.006 0.19757,-0.0184 0.3669,-0.0372 0.17561,-0.0251 0.29792,-0.0787 0.36691,-0.1602 0.0753,-0.0815 0.12226,-0.21951 0.14107,-0.41392 l 0.0186,-0.43254 v -4.46846 l -0.0186,-0.43305 c -0.0188,-0.20068 -0.0628,-0.33867 -0.13177,-0.41392 -0.0627,-0.0815 -0.19109,-0.1346 -0.38551,-0.15968 l -0.50798,-0.0377 z m 4.68447,0 h 3.59358 l 3.37705,4.32739 h 0.0377 v -3.00085 l -0.0186,-0.45165 c -0.0188,-0.20069 -0.0724,-0.35131 -0.16019,-0.45166 -0.0815,-0.10661 -0.20688,-0.17231 -0.37621,-0.1974 -0.16933,-0.0314 -0.30731,-0.0501 -0.41392,-0.0563 -0.10035,-0.006 -0.19436,-0.0128 -0.28216,-0.0191 v -0.15038 h 2.7094 v 0.15038 c -0.0815,0.006 -0.17251,0.0128 -0.27285,0.0191 -0.0941,0.006 -0.22903,0.025 -0.40463,0.0563 -0.1756,0.0251 -0.31055,0.0974 -0.40463,0.21652 -0.0878,0.11289 -0.14086,0.26957 -0.15968,0.47026 l -0.0186,0.45165 v 5.49372 h -1.14773 l -4.46847,-5.71954 h -0.0377 v 4.39301 l 0.0186,0.45165 c 0.0188,0.20696 0.0694,0.36061 0.1509,0.46095 0.0878,0.10035 0.21618,0.16605 0.38551,0.19741 0.1756,0.0251 0.32319,0.0407 0.44235,0.047 0.12543,0.006 0.20983,0.0123 0.25373,0.0186 v 0.15089 h -2.7094 v -0.15089 c 0.0815,-0.006 0.17251,-0.0123 0.27285,-0.0186 0.10035,-0.006 0.27624,-0.028 0.5271,-0.0656 0.25713,-0.0439 0.40421,-0.2572 0.44184,-0.63976 l 0.0191,-0.45165 v -4.28036 l -0.0191,-0.43253 c -0.0815,-0.1317 -0.17857,-0.25402 -0.29146,-0.3669 -0.11289,-0.11289 -0.23823,-0.19123 -0.3762,-0.23513 -0.1317,-0.0439 -0.2606,-0.0661 -0.38603,-0.0661 h -0.28215 z m 8.82427,0 h 4.40231 v 0.15038 l -0.50798,0.0284 c -0.19441,0.0188 -0.32582,0.0658 -0.3948,0.14108 -0.0627,0.069 -0.10366,0.21 -0.12248,0.42323 l -0.0186,0.43253 v 4.50619 l 0.0186,0.43305 c 0.0188,0.20696 0.0628,0.34797 0.13178,0.42323 0.0753,0.069 0.21021,0.11599 0.40462,0.14107 l 0.48886,0.0279 v 0.15089 h -4.43073 v -0.15089 h 0.1788 c 0.0753,-0.006 0.19757,-0.0184 0.3669,-0.0372 0.1756,-0.0251 0.29792,-0.0787 0.3669,-0.1602 0.0753,-0.0815 0.12226,-0.21951 0.14108,-0.41392 l 0.0186,-0.43254 v -4.46846 l -0.0186,-0.43305 c -0.0188,-0.20068 -0.0628,-0.33867 -0.13178,-0.41392 -0.0627,-0.0815 -0.19109,-0.1346 -0.3855,-0.15968 l -0.50798,-0.0377 z m 4.77852,0 h 7.4321 v 3.01946 h -0.16019 c -0.16934,-0.38256 -0.37302,-0.7869 -0.61134,-1.21336 -0.23204,-0.43274 -0.47667,-0.80877 -0.7338,-1.12862 -0.25713,-0.31984 -0.48306,-0.48007 -0.67748,-0.48007 l -0.3762,-0.0186 v 5.48442 l 0.0191,0.43254 c 0.0188,0.20068 0.0592,0.3417 0.12195,0.42323 0.069,0.0753 0.1726,0.12226 0.31058,0.14107 0.13797,0.0126 0.26331,0.0221 0.3762,0.0284 0.11289,0.006 0.21347,0.0123 0.30128,0.0186 v 0.15089 h -4.60024 v -0.15089 l 0.62063,-0.0279 c 0.18815,-0.0188 0.31704,-0.0658 0.38603,-0.14107 0.069,-0.0753 0.11244,-0.21627 0.13125,-0.42323 l 0.0191,-0.43305 v -5.50303 l -0.3669,0.0186 c -0.20069,0 -0.42359,0.15062 -0.66817,0.45165 -0.24459,0.29476 -0.49225,0.67131 -0.74311,1.12913 -0.24459,0.45155 -0.4513,0.86498 -0.62064,1.24127 h -0.16019 z m 7.71426,0 h 7.23418 v 2.78433 h -0.1509 c -0.31984,-0.70241 -0.70851,-1.29173 -1.16633,-1.76837 -0.45782,-0.4829 -0.84346,-0.74017 -1.15704,-0.77153 -0.3073,-0.0314 -0.5676,-0.05 -0.78083,-0.0563 -0.21323,-0.006 -0.35424,-0.009 -0.42323,-0.009 h -0.0847 l -0.0186,3.0856 0.39481,-0.0191 c 0.36374,-0.0376 0.63668,-0.20694 0.81855,-0.50798 0.18815,-0.3073 0.28215,-0.66766 0.28215,-1.08158 h 0.1788 v 3.42408 h -0.1788 c 0,-0.42019 -0.094,-0.78714 -0.28215,-1.10071 -0.18187,-0.31358 -0.45481,-0.48895 -0.81855,-0.52658 l -0.39481,-0.0191 v 3.23649 c 0.2634,-0.006 0.53279,-0.01 0.80873,-0.01 0.27595,-0.006 0.56758,-0.028 0.87489,-0.0656 0.3073,-0.0439 0.68688,-0.35423 1.13843,-0.93121 0.45155,-0.58325 0.78412,-1.18218 0.99735,-1.79679 h 0.15038 v 2.99155 h -7.39438 v -0.15089 c 0.0815,0 0.17606,-0.003 0.28267,-0.009 0.10662,-0.0125 0.22538,-0.0252 0.35709,-0.0377 0.13797,-0.0188 0.24158,-0.0658 0.31057,-0.14107 0.0753,-0.0815 0.12226,-0.22255 0.14108,-0.42323 l 0.0186,-0.43254 v -4.45916 l -0.0186,-0.43253 c -0.0188,-0.20069 -0.0658,-0.34221 -0.14108,-0.42374 -0.0753,-0.0815 -0.1819,-0.13157 -0.31988,-0.15038 -0.1317,-0.0188 -0.25401,-0.0279 -0.3669,-0.0279 -0.10661,-0.006 -0.20365,-0.0128 -0.29145,-0.0191 z" /><path
       style="fill:#000000;stroke-width:0.18768"
       d="M 0,-91.940265 V -130.4465 h 66.80682 68.65985 v 38.506235 37.582422 H 66.80682 0 Z m 77.320456,6.790599 c 0.08033,-0.10353 0.30787,-0.863054 0.660714,-2.205423 0.08014,-0.304883 0.178424,-0.651239 0.218411,-0.769686 0.03999,-0.118445 0.09396,-0.304736 0.119943,-0.413983 0.02598,-0.109244 0.102871,-0.388565 0.170871,-0.620712 0.068,-0.232147 0.262148,-0.936035 0.431443,-1.564196 0.169295,-0.628162 0.340807,-1.242009 0.381139,-1.364105 0.04033,-0.122097 0.127099,-0.423762 0.192817,-0.67037 0.118359,-0.444155 0.392218,-1.452384 0.472477,-1.739462 0.179295,-0.641314 0.206343,-0.779495 0.161379,-0.82446 -0.03179,-0.03179 -0.296803,0.07997 -0.764149,0.322275 -0.82564,0.428067 -1.815549,0.886478 -2.2759,1.053937 -0.175449,0.06382 -0.336938,0.13398 -0.358866,0.155908 -0.02193,0.02193 0.01548,0.149198 0.08313,0.28282 0.207247,0.409367 0.190812,0.512002 -0.469557,2.932428 -0.111771,0.40967 -0.223679,0.789546 -0.248682,0.844168 -0.025,0.05462 -0.0723,0.222215 -0.105093,0.372429 -0.0328,0.150212 -0.09376,0.373669 -0.135475,0.49657 -0.04171,0.1229 -0.14851,0.491605 -0.237322,0.819342 -0.259094,0.956123 -0.548488,2.005612 -0.667619,2.421126 -0.08898,0.310349 -0.09848,0.399593 -0.0489,0.459328 0.05134,0.06186 0.252818,0.07414 1.21631,0.07414 0.865032,0 1.166863,-0.01557 1.202939,-0.06207 z M 47.168714,-88.25399 c 0.07692,-0.05512 0.2815,-0.728132 0.422628,-1.390346 0.02482,-0.116464 0.06553,-0.250538 0.09047,-0.297943 0.02494,-0.04741 0.09431,-0.287301 0.154162,-0.533103 0.05985,-0.245801 0.153191,-0.57526 0.207429,-0.732129 0.174858,-0.505734 -0.02,-0.528175 -0.433886,-0.04997 -0.493353,0.570031 -1.056388,1.093788 -1.885616,1.754071 -0.451327,0.359374 -0.479557,0.380528 -1.064124,0.797395 -0.432941,0.308738 -0.508132,0.381489 -0.465534,0.450412 0.03074,0.04974 2.905139,0.0513 2.974468,0.0017 z m 9.584506,-0.0489 c 0.02057,-0.04779 0.110462,-0.355047 0.199754,-0.682784 0.08929,-0.327736 0.241491,-0.886377 0.33822,-1.241425 0.09673,-0.355047 0.223938,-0.813134 0.282689,-1.01797 0.05875,-0.204834 0.139573,-0.495329 0.179607,-0.64554 0.04004,-0.150214 0.126993,-0.453201 0.193241,-0.673305 0.06625,-0.220106 0.121432,-0.432389 0.12263,-0.471741 0.0012,-0.03936 0.03622,-0.160935 0.07781,-0.270181 0.0416,-0.109245 0.150658,-0.489121 0.242354,-0.844168 0.0917,-0.355048 0.182188,-0.695821 0.201093,-0.757271 l 0.03437,-0.111728 h -1.294961 -1.29496 l -0.05314,0.211043 c -0.02923,0.116072 -0.09629,0.356287 -0.149025,0.533812 -0.139468,0.469464 -0.684544,2.436526 -0.715521,2.582166 -0.0087,0.04097 -0.02905,0.108004 -0.04521,0.148971 -0.03008,0.0763 -0.275205,0.988431 -0.527127,1.961453 -0.07778,0.300425 -0.188605,0.689578 -0.246275,0.864785 -0.180362,0.54796 -0.289271,0.500783 1.156088,0.500783 1.153544,0 1.264128,-0.0074 1.298346,-0.0869 z m 4.425711,0.04858 c 0.03181,-0.02024 0.1168,-0.237768 0.188862,-0.483396 0.121491,-0.414111 0.209673,-0.734004 0.643277,-2.333564 0.309018,-1.139968 0.865219,-3.131667 1.018473,-3.647061 0.126303,-0.424755 0.142577,-0.530321 0.08987,-0.583023 -0.0527,-0.05271 -0.109071,-0.03438 -0.311316,0.101184 -0.633677,0.42476 -1.640459,0.876365 -1.953723,0.876365 -0.126574,0 -0.219527,0.03303 -0.279517,0.09931 -0.04943,0.05462 -0.119072,0.09931 -0.154753,0.09931 -0.03568,0 -0.09035,0.09497 -0.12148,0.211042 -0.03114,0.116073 -0.08683,0.300426 -0.123769,0.40967 -0.06315,0.186753 -0.194924,0.67392 -0.519617,1.920976 -0.07598,0.291816 -0.151112,0.551558 -0.16696,0.5772 -0.01584,0.02565 -0.10555,0.334351 -0.199335,0.686021 -0.09379,0.351667 -0.250968,0.940827 -0.349292,1.309245 -0.09832,0.368418 -0.167964,0.698016 -0.154753,0.732443 0.01837,0.0479 0.295357,0.06241 1.180102,0.06183 0.635847,-3.75e-4 1.182113,-0.01732 1.213927,-0.03756 z m 19.854632,-0.06814 c 0.350206,-0.05836 1.11687,-0.370667 1.539367,-0.627064 0.378146,-0.229486 0.365144,-0.219284 0.805781,-0.632048 0.751386,-0.703844 1.130586,-1.297681 1.33179,-2.085596 0.0209,-0.08193 0.04765,-0.182489 0.05942,-0.223456 0.03884,-0.135358 0.08967,-0.666942 0.0831,-0.869073 -0.0087,-0.266931 -0.150686,-0.741344 -0.304208,-1.016328 -0.341543,-0.611759 -0.895493,-1.038145 -1.580535,-1.216577 -0.393116,-0.102394 -1.141208,-0.154785 -1.185553,-0.08303 -0.01903,0.03074 0.03183,0.195714 0.112971,0.366608 0.08114,0.170895 0.171739,0.443309 0.201339,0.605365 0.226405,1.239531 -0.338566,3.341913 -1.255238,4.671055 -0.113016,0.163869 -0.216657,0.309895 -0.230312,0.324502 -0.01366,0.0146 -0.192422,0.199674 -0.397257,0.411255 -0.30436,0.314383 -0.358812,0.393664 -0.297943,0.433779 0.0797,0.05252 0.617207,0.02395 1.117285,-0.0594 z m 11.910179,0.01956 c 0.124887,-0.452059 0.253696,-0.924551 0.382409,-1.402811 0.08453,-0.314081 0.232412,-0.850377 0.328625,-1.191769 0.36277,-1.287219 0.371059,-1.331694 0.376982,-2.022881 0.0051,-0.600257 -0.0032,-0.667067 -0.09733,-0.769685 -0.05665,-0.0618 -0.152622,-0.211241 -0.213319,-0.332083 -0.238077,-0.47403 -0.870511,-0.944311 -1.379312,-1.025672 -0.237112,-0.03791 -0.252217,-0.01815 -0.382139,0.50053 -0.151734,0.605743 -0.234675,0.841126 -0.335364,0.951829 -0.06949,0.0764 -0.103692,0.19895 -0.117768,0.422085 -0.01839,0.291587 -0.09677,0.627193 -0.369104,1.58068 -0.05852,0.204834 -0.192041,0.685267 -0.296749,1.067626 -0.104708,0.382359 -0.261008,0.941 -0.347331,1.241425 -0.288312,1.003443 -0.274885,0.925449 -0.172312,1.000448 0.07148,0.05227 0.370114,0.06718 1.345288,0.06718 1.151478,0 1.255369,-0.0071 1.277426,-0.0869 z m -50.426214,-0.571463 c 0.09174,-0.334336 0.232385,-0.842512 0.312547,-1.129281 0.179153,-0.640904 0.25329,-0.911407 0.381064,-1.390396 0.303641,-1.138268 0.412203,-1.524559 0.453551,-1.613855 0.02529,-0.05462 0.111498,-0.356288 0.191568,-0.670369 0.24999,-0.98061 0.515421,-1.957215 0.560095,-2.060767 0.02356,-0.05462 0.09028,-0.27808 0.148258,-0.49657 0.05798,-0.218492 0.161247,-0.587195 0.229489,-0.819342 0.198844,-0.67643 0.214774,-0.762777 0.148497,-0.804911 -0.03265,-0.02076 -0.609679,-0.03808 -1.282291,-0.0385 -0.919817,-5.86e-4 -1.235097,0.01462 -1.272016,0.06132 -0.02699,0.03414 -0.108831,0.2967 -0.181854,0.58347 -0.07302,0.28677 -0.14306,0.554917 -0.155636,0.595884 -0.01258,0.04097 -0.09086,0.33146 -0.173968,0.645541 -0.08311,0.314081 -0.171253,0.615749 -0.195882,0.670371 -0.02463,0.05462 -0.102617,0.329767 -0.173309,0.611434 -0.07069,0.281665 -0.159744,0.605678 -0.19789,0.720026 -0.03815,0.114349 -0.137008,0.482236 -0.219689,0.817527 -0.08268,0.33529 -0.165731,0.634537 -0.184553,0.664992 -0.01882,0.03045 -0.108153,0.337114 -0.198511,0.681464 -0.285566,1.088279 -0.457535,1.714515 -0.506012,1.842688 -0.02582,0.06828 -0.107777,0.369945 -0.182117,0.67037 -0.07434,0.300426 -0.166657,0.616642 -0.205149,0.702703 -0.07627,0.170515 -0.08846,0.280239 -0.03689,0.331818 0.0182,0.01821 0.604781,0.03292 1.303497,0.03269 l 1.270393,-3.76e-4 z m 26.87146,0.512333 c 0,-0.05301 -0.02078,-0.109231 -0.04619,-0.124931 -0.0254,-0.01571 -0.103614,-0.205937 -0.1738,-0.422746 -0.105361,-0.325471 -0.12761,-0.489268 -0.12761,-0.939464 0,-0.299895 0.02079,-0.599943 0.0462,-0.666776 0.02541,-0.06683 0.06954,-0.289339 0.09807,-0.494462 0.05033,-0.361844 0.240189,-1.022073 0.347919,-1.209858 0.02916,-0.05084 0.122244,-0.271194 0.20684,-0.489686 0.0846,-0.21849 0.176091,-0.424159 0.203316,-0.457039 0.02723,-0.03289 0.122724,-0.211646 0.212222,-0.397256 0.19139,-0.396929 0.516818,-0.837517 0.868236,-1.175482 0.138469,-0.133169 0.251762,-0.265024 0.251762,-0.293011 0,-0.06971 -0.942346,-0.0093 -1.275636,0.08172 -0.355811,0.09721 -0.927001,0.360008 -1.274945,0.586577 -0.160153,0.104286 -0.311881,0.189611 -0.337175,0.189611 -0.0253,0 -0.131616,0.0838 -0.236275,0.186213 -0.104655,0.102418 -0.221075,0.214253 -0.258709,0.248526 -0.212025,0.193082 -0.341538,0.341264 -0.341538,0.390774 0,0.03089 -0.03349,0.08395 -0.07443,0.117924 -0.132405,0.109886 -0.498839,0.760817 -0.615009,1.0925 -0.06218,0.177526 -0.133623,0.361606 -0.158765,0.409072 -0.103779,0.195916 -0.165748,1.011652 -0.106029,1.39577 0.05055,0.325162 0.228267,0.799125 0.383176,1.021924 0.144518,0.207851 0.615792,0.609577 0.880828,0.750841 0.403535,0.215081 0.681354,0.28588 1.142696,0.291203 0.349363,0.0041 0.384844,-0.0044 0.384844,-0.09194 z m 2.820301,-0.07118 c 1.181178,-0.410837 2.266429,-1.307804 2.774718,-2.29332 0.376721,-0.730421 0.479137,-1.108222 0.483831,-1.784797 0.0047,-0.675362 -0.05523,-0.94917 -0.299113,-1.366869 -0.34466,-0.590301 -0.967938,-1.015698 -1.662272,-1.134532 -0.369137,-0.06318 -0.889759,-0.07458 -0.889759,-0.01949 0,0.02005 0.05374,0.148539 0.119424,0.285528 0.18271,0.381064 0.231952,0.582272 0.252012,1.029761 0.07341,1.637577 -0.790132,3.93711 -1.894992,5.046198 -0.172564,0.173225 -0.313754,0.338395 -0.313754,0.367044 0,0.102227 1.032498,0.0087 1.429905,-0.129531 z m 16.794225,0.11891 c 0,-0.02676 -0.08657,-0.09281 -0.192375,-0.146792 -0.427417,-0.21805 -0.623535,-0.598786 -0.591704,-1.148698 0.04688,-0.80966 0.654961,-1.600056 1.503891,-1.95476 0.09571,-0.03999 0.174022,-0.09894 0.174022,-0.13099 0,-0.07538 -2.007637,-0.03077 -2.333882,0.05186 -0.351003,0.0889 -0.899995,0.372635 -1.154553,0.596704 -0.465806,0.410014 -0.693343,0.888187 -0.697324,1.465415 -0.0026,0.406804 0.06805,0.572551 0.35598,0.832678 0.266525,0.240784 0.450952,0.330043 0.843522,0.408244 0.393476,0.07838 2.092423,0.09977 2.092423,0.02634 z m -36.747908,-0.212053 c 0.02521,-0.06145 0.09424,-0.27932 0.153415,-0.484156 0.05917,-0.204836 0.137055,-0.472984 0.17307,-0.595884 0.03601,-0.122901 0.08058,-0.301666 0.09904,-0.397258 0.01846,-0.09559 0.06256,-0.240834 0.09801,-0.32277 0.03544,-0.08193 0.126191,-0.405947 0.201659,-0.720027 0.07547,-0.314079 0.167328,-0.643715 0.204131,-0.73252 0.0368,-0.08881 0.09885,-0.313261 0.137875,-0.498788 0.03903,-0.185526 0.125213,-0.503915 0.191524,-0.707532 0.06631,-0.203618 0.136529,-0.448422 0.156039,-0.544011 0.01951,-0.09559 0.09917,-0.386085 0.177025,-0.645541 0.07785,-0.259458 0.156642,-0.555539 0.175086,-0.657956 L 54.05602,-95.019 h -1.317914 -1.317914 l -0.07574,0.260699 c -0.04166,0.143385 -0.107894,0.398636 -0.147197,0.567227 -0.0393,0.168589 -0.08461,0.327796 -0.100673,0.353794 -0.01606,0.02599 -0.110096,0.346146 -0.208955,0.711441 -0.09886,0.365297 -0.244117,0.898806 -0.322797,1.185574 -0.179284,0.65345 -0.22664,1.200353 -0.146263,1.689191 0.0741,0.450642 0.178259,0.701169 0.437341,1.051875 0.240085,0.324991 0.485874,0.517945 0.851228,0.668247 0.355841,0.146388 0.489861,0.147514 0.548474,0.0046 z m -5.760221,-3.153221 c 0.03347,-0.12973 0.08333,-0.296239 0.110794,-0.370019 0.02746,-0.07378 0.112515,-0.375448 0.189,-0.670371 0.182914,-0.705298 0.37379,-1.387623 0.523839,-1.872556 0.155496,-0.502537 0.154303,-0.525805 -0.02696,-0.525805 -0.112248,0 -0.174943,0.03941 -0.256747,0.161386 -0.149659,0.223155 -0.766367,0.74576 -1.170437,0.991841 -0.184853,0.112576 -0.542795,0.302797 -0.795425,0.422713 -0.26122,0.123995 -0.459327,0.248435 -0.459327,0.288521 0,0.03877 0.112433,0.127465 0.249851,0.1971 0.509135,0.257998 1.093852,0.928139 1.288295,1.476503 0.03456,0.09748 0.08245,0.136558 0.167339,0.136558 0.100221,0 0.128487,-0.03709 0.179775,-0.235871 z m 42.330216,-0.745783 c 0.324072,-0.103531 0.819112,-0.483409 0.957908,-0.735078 0.100457,-0.182143 0.10663,-0.231376 0.06231,-0.496569 -0.07609,-0.455008 -0.01717,-0.782904 0.189771,-1.056065 0.09643,-0.1273 0.197417,-0.245961 0.224418,-0.263687 0.09251,-0.06075 -0.0066,-0.19497 -0.125684,-0.170228 -0.06205,0.01289 -0.246893,0.03746 -0.410761,0.05459 -0.647379,0.06771 -1.249751,0.324967 -1.79619,0.767111 -0.876992,0.709607 -0.800083,1.797556 0.140301,1.984551 0.240495,0.04782 0.398595,0.03017 0.757946,-0.08463 z m -22.918163,-0.604567 c 0.311663,-0.157328 0.648741,-0.511733 0.775691,-0.815567 0.09421,-0.225477 0.09527,-0.640825 0.0021,-0.821015 -0.111738,-0.216076 -0.384667,-0.427724 -0.645875,-0.50086 -0.205183,-0.05744 -0.283172,-0.05567 -0.569144,0.01297 -0.349143,0.08379 -0.997257,0.360792 -0.997257,0.42622 0,0.02117 -0.08467,0.08607 -0.188156,0.144233 -0.31358,0.176243 -1.05327,0.996599 -1.05327,1.168135 0,0.125102 0.07287,0.139724 0.298898,0.05998 0.401459,-0.141642 0.618139,-0.08599 1.009971,0.259421 l 0.241242,0.212659 h 0.418129 c 0.364122,0 0.455532,-0.01888 0.707685,-0.146166 z m -16.935117,-1.678731 c 0.02504,-0.04779 0.06065,-0.165108 0.07912,-0.260699 0.01848,-0.09559 0.05455,-0.21849 0.08017,-0.273114 0.02561,-0.05462 0.113162,-0.356288 0.19455,-0.670369 0.08139,-0.31408 0.218689,-0.828032 0.305115,-1.142113 0.08642,-0.314081 0.159582,-0.626919 0.162571,-0.695197 l 0.0054,-0.124142 -1.477297,-0.01316 c -0.812514,-0.0072 -1.477297,-0.0023 -1.477297,0.01085 0,0.0132 0.17588,0.197884 0.390845,0.41041 0.391256,0.386814 0.583639,0.651293 0.913185,1.255407 0.180144,0.330234 0.45109,0.999483 0.512645,1.266254 0.05006,0.21693 0.113813,0.322772 0.194435,0.322772 0.03905,0 0.09148,-0.0391 0.11652,-0.0869 z"
       id="path1"
       sodipodi:nodetypes="cccccccccssssssssssssscsssssssssscssssssssccsssssscssscccssssssssssssssssssssssssscsssssccssscsssssssscsssccsssssssssscsssssssscsssssssssssssscccsssssssssssssssssssssssscssssssssssssssscssssscsssscssssssssssscccssssssssccssssssssssssscssscssssccsssssssssscssscsssscccssssscccs" /><path
       id="rect3"
       style="fill:#000000;stroke-width:0.155725"
       d="m 0,-234.64781 v 76.19999 h 135.46667 v -76.19999 z m 43.587671,29.98006 c 0.11602,-0.0129 1.356605,1.34092 1.497642,1.63847 0.01214,0.0256 -0.541601,0.71008 -1.230597,1.52075 -1.452566,1.70905 -1.452579,1.37761 6.09e-4,3.26233 0.505445,0.65553 0.932345,1.2155 0.948648,1.24428 0.01635,0.0288 -0.313677,0.44957 -0.733309,0.93497 -0.55595,0.64307 -0.807857,0.83766 -0.928878,0.71688 -0.07259,-0.0725 -2.047814,-2.67826 -2.53419,-3.29974 -0.486387,-0.62147 -0.88034,-1.21523 -0.875043,-1.31971 0.0079,-0.16309 3.54722,-4.48015 3.850556,-4.6967 1.62e-4,-1.2e-4 4.41e-4,-2.1e-4 6.08e-4,-3.1e-4 10e-4,-5.1e-4 0.0026,-0.001 0.004,-0.001 z m 48.518529,3.16105 c 0.281171,0.001 0.89509,0.72134 2.101379,2.40219 0.93234,1.29911 1.754977,2.35404 1.827948,2.34409 0.07299,-0.01 0.126077,-0.95967 0.118014,-2.11051 -0.01644,-2.33723 0.05987,-2.74087 0.482079,-2.55335 0.225039,0.1 0.286191,0.73067 0.311146,3.20515 0.03371,3.34144 0.03902,3.23154 -0.16029,3.30826 -0.314278,0.12096 -0.664871,-0.25923 -2.18289,-2.36874 -0.87808,-1.22021 -1.674572,-2.20609 -1.770162,-2.19049 -0.097,0.0158 -0.171138,1.00831 -0.168195,2.24615 0.0052,2.01224 -0.02335,2.22449 -0.309016,2.29087 -0.173163,0.0402 -0.352536,0.0563 -0.398444,0.0359 -0.0814,-0.0362 -0.116454,-5.82944 -0.03832,-6.34064 0.02692,-0.17607 0.08505,-0.26939 0.186753,-0.26887 z m -5.04587,0.0769 c 1.539448,-0.0392 3.115212,1.10135 3.159825,3.0847 0.0571,2.53953 -2.0656,4.12724 -4.242911,3.17352 -1.572516,-0.68879 -2.253773,-2.66229 -1.523494,-4.41294 0.516999,-1.23935 1.553266,-1.81846 2.60658,-1.84528 z m -5.920005,0.0538 c 0.97138,0.0159 1.899178,0.4588 1.670399,0.97389 -0.06788,0.15284 -0.267161,0.13087 -0.746691,-0.0821 -1.135832,-0.50448 -2.38505,-0.0623 -2.320066,0.82121 0.04421,0.60116 0.33227,0.82908 1.668574,1.32184 1.271944,0.46904 1.274255,0.47076 1.516498,1.10012 0.197724,0.51372 0.190568,0.74704 -0.03771,1.26101 -0.467271,1.05206 -1.781137,1.37678 -3.136105,0.77498 -0.824189,-0.36607 -1.022219,-0.57647 -0.802047,-0.85224 0.148643,-0.18619 0.288645,-0.16223 0.827291,0.14174 1.150493,0.64924 2.460094,0.31108 2.512595,-0.64906 0.01434,-0.26209 -0.02855,-0.5589 -0.0952,-0.6594 -0.06664,-0.10051 -0.727073,-0.40368 -1.467834,-0.6737 l -1.346782,-0.4909 -0.242713,-0.6302 c -0.201994,-0.52475 -0.192818,-0.74248 0.05505,-1.30055 0.257934,-0.58075 0.391351,-0.70295 1.000049,-0.91702 0.292276,-0.10278 0.620901,-0.1449 0.944694,-0.1396 z m -4.120946,0.0478 c 0.295203,-0.004 0.373665,0.49505 0.346732,1.93106 -0.01725,0.91782 -0.03857,2.29179 -0.04775,3.05337 -0.01391,1.15573 -0.05837,1.38255 -0.268261,1.37172 -0.455181,-0.0235 -0.478806,-0.10149 -0.442845,-1.46114 0.01959,-0.74104 -0.0104,-1.36775 -0.06661,-1.39271 -0.184434,-0.0819 -3.049145,-0.009 -3.088049,0.0785 -0.02089,0.047 -0.04646,0.62853 -0.05688,1.29234 -0.01039,0.66382 -0.0883,1.27675 -0.173367,1.36199 -0.44524,0.44615 -0.554412,-0.20155 -0.520099,-3.08987 0.02956,-2.49139 0.08468,-3.074 0.293507,-3.10478 0.394158,-0.0581 0.481085,0.0232 0.460485,0.43068 -0.01048,0.20623 -0.01888,0.81432 -0.01886,1.35104 v 0.97572 l 1.499162,-0.001 c 0.824568,-7.5e-4 1.543687,-0.05 1.598012,-0.1095 0.05431,-0.0595 0.107416,-0.66351 0.11801,-1.34222 0.01301,-0.82988 0.08745,-1.26026 0.226897,-1.31393 0.05134,-0.0198 0.09774,-0.0305 0.13991,-0.031 z m -5.962888,0.08 c 0.471539,0.036 0.490867,0.12873 0.531049,0.31419 0.06557,0.30254 -0.01603,0.33572 -0.816038,0.33396 -0.488895,-0.001 -0.915924,0.008 -0.948648,0.021 -0.03274,0.0126 -0.07383,0.93128 -0.09155,2.04146 -0.06001,3.76349 -0.0405,3.59766 -0.422466,3.55522 -0.182097,-0.0202 -0.338404,-0.0664 -0.347645,-0.10249 -0.0092,-0.0361 0.0092,-1.20433 0.04106,-2.59594 0.03184,-1.39161 0.02734,-2.61656 -0.01004,-2.72215 -0.04242,-0.11982 -0.370735,-0.18149 -0.873219,-0.16424 -0.636726,0.0218 -0.811844,-0.0217 -0.837329,-0.20865 -0.06887,-0.50478 -0.454624,-0.0163 -1.410654,1.78719 -0.952816,1.79739 -0.987026,1.89332 -1.01769,2.85142 -0.02108,0.65851 -0.100618,1.01762 -0.23663,1.07001 -0.37227,0.14328 -0.514214,-0.22329 -0.47113,-1.2157 0.04361,-1.00501 0.0757,-0.91972 -1.673745,-4.43787 -0.164794,-0.33139 -0.153641,-0.40445 0.066,-0.43676 0.145052,-0.0213 0.305181,-0.0215 0.355857,-3e-4 0.05074,0.0211 0.422446,0.71928 0.826075,1.55178 0.403623,0.83249 0.793168,1.5057 0.865615,1.49581 0.07245,-0.01 0.492671,-0.70676 0.933744,-1.54843 l 0.802048,-1.53019 1.490645,-0.0331 c 1.849278,-0.0413 2.773148,-0.0621 3.244686,-0.0262 z m -14.854751,0.10372 c 0.222731,0.003 0.360732,0.28598 1.694123,3.20333 0.383635,0.83936 0.420639,0.87617 0.680387,0.67399 0.151091,-0.1176 0.530198,-0.7764 0.842499,-1.46388 1.503493,-3.30981 1.837245,-3.23098 1.725146,0.40787 -0.04637,1.50575 -0.09211,2.86761 -0.101586,3.02661 -0.02195,0.36816 -0.56847,0.37281 -0.623206,0.005 -0.0209,-0.14007 -0.01075,-0.94826 0.02251,-1.79571 0.03325,-0.84744 -0.0042,-1.6051 -0.08303,-1.68378 -0.149326,-0.14903 -0.859282,0.98955 -1.466314,2.35048 -0.252273,0.56571 -0.345001,0.65628 -0.568763,0.5569 -0.14696,-0.0653 -0.304602,-0.25267 -0.350687,-0.41608 -0.217241,-0.7707 -1.096516,-2.40566 -1.280173,-2.38059 -0.14188,0.0194 -0.226837,0.54145 -0.275865,1.69716 -0.03893,0.91815 -0.136304,1.73611 -0.216556,1.81761 -0.407641,0.41413 -0.499769,-0.2654 -0.406346,-2.99528 0.08407,-2.45562 0.147277,-2.9806 0.36194,-3.00167 0.01598,-0.001 0.03108,-0.003 0.04593,-0.002 z m -3.374559,0.045 c 0.483373,0.008 0.96881,0.13174 1.242458,0.34582 0.467771,0.36596 0.251529,0.72704 -0.291073,0.48604 -1.142918,-0.50763 -2.238431,-0.078 -2.209355,0.86622 0.0137,0.44476 0.05262,0.47672 1.254016,1.01161 1.143336,0.50935 1.255982,0.59394 1.444719,1.0843 0.28984,0.75303 0.01075,1.62861 -0.626248,1.96451 -0.670951,0.35382 -1.430903,0.36932 -2.163124,0.0441 -0.694478,-0.30844 -0.874156,-0.49787 -0.746083,-0.78623 0.06324,-0.14237 0.27367,-0.1092 0.757944,0.11923 0.764316,0.36054 1.294548,0.36467 1.837379,0.0146 0.32387,-0.20888 0.375546,-0.3118 0.364069,-0.72693 -0.01294,-0.46806 -0.05499,-0.50466 -1.309979,-1.14452 -1.153207,-0.58797 -1.310241,-0.712 -1.419779,-1.12079 -0.254073,-0.94825 0.149189,-1.73813 1.043543,-2.0439 0.242337,-0.0829 0.531489,-0.11906 0.821513,-0.11406 z m 34.414116,0.36407 c -1.867469,-0.0472 -3.173056,2.57103 -1.725451,4.31652 0.396802,0.47845 0.662552,0.66822 1.0697,0.76464 0.686674,0.16261 1.817415,-0.18413 2.248895,-0.68982 1.090777,-1.2784 0.6756,-3.55791 -0.764634,-4.19759 -0.283319,-0.12584 -0.56173,-0.18701 -0.82851,-0.19375 z m -46.241041,3.21792 c 0.02931,-0.001 0.05371,0.008 0.073,0.0271 1.575795,1.57259 2.560241,3.44879 2.75774,3.70943 0.443334,0.58507 0.781075,1.10491 0.750646,1.15517 -0.08644,0.14272 -3.977028,4.64626 -4.047951,4.68576 -0.136965,0.0762 -1.439434,-1.89659 -1.327924,-2.01136 0.435906,-0.44875 2.399603,-2.8166 2.378768,-2.86845 -0.06116,-0.15211 -1.846776,-2.55241 -2.045418,-2.74953 -0.148902,-0.14772 -0.153352,-0.2838 -0.01399,-0.42338 0.112887,-0.11307 0.472901,-0.53043 0.800222,-0.92766 0.325787,-0.39536 0.547892,-0.59216 0.674912,-0.59705 z m 38.924984,4.16292 c 0.01438,-1.7e-4 0.02968,4.6e-4 0.04593,0.001 0.118449,0.008 0.203654,0.47776 0.208952,1.15183 0.0048,0.6263 0.09405,1.14692 0.198306,1.15699 0.104236,0.0101 0.412679,-0.20265 0.685557,-0.47265 0.272873,-0.27001 0.608362,-0.53392 0.745475,-0.58671 0.435712,-0.16771 0.367637,0.15131 -0.137172,0.64297 -0.268423,0.26144 -0.510106,0.52474 -0.536827,0.58489 -0.02672,0.0601 0.209123,0.47917 0.523749,0.93131 0.314631,0.45213 0.546995,0.8784 0.516448,0.94713 -0.105395,0.23729 -0.559944,-0.10066 -0.924315,-0.68708 -0.201067,-0.3236 -0.426084,-0.615 -0.500025,-0.64784 -0.219307,-0.0974 -0.635377,0.54832 -0.606478,0.94134 0.0147,0.20007 -0.02282,0.38292 -0.08364,0.40635 -0.317903,0.12236 -0.42561,-0.45263 -0.39783,-2.12176 0.03405,-2.04384 0.04621,-2.24517 0.261874,-2.24829 z m 7.162764,0.003 c 0.389568,-0.025 0.699914,0.15855 0.596744,0.39084 -0.05215,0.11768 -0.1871,0.17235 -0.299893,0.12227 -0.279653,-0.12422 -0.503144,0.0534 -0.545345,0.43341 -0.02875,0.25878 0.0377,0.31996 0.366202,0.33791 0.273143,0.0149 0.410344,0.0885 0.429767,0.23085 0.01567,0.11501 -0.04023,0.20356 -0.124094,0.19679 -0.622782,-0.0503 -0.671062,0.0427 -0.697725,1.3407 -0.02924,1.42265 -0.01993,1.3582 -0.208344,1.43073 -0.288584,0.11107 -0.330078,-0.074 -0.310538,-1.38419 0.0162,-1.08521 -0.0358,-1.3574 -0.263699,-1.38359 -0.187563,-0.0215 -0.25004,-0.10821 -0.18462,-0.25549 0.05449,-0.12267 0.157285,-0.19749 0.228113,-0.16606 0.07084,0.0315 0.211022,-0.22437 0.311756,-0.56877 0.145653,-0.49778 0.25447,-0.64151 0.530744,-0.70137 0.05791,-0.0125 0.115253,-0.0204 0.170932,-0.024 z m -8.715456,0.0271 c 0.0331,-4.4e-4 0.06517,0.005 0.09398,0.0179 0.115264,0.0512 0.181395,0.21477 0.146905,0.36346 -0.04396,0.1897 -0.153666,0.22996 -0.368023,0.13474 -0.214345,-0.0952 -0.258192,-0.20367 -0.146905,-0.36346 0.06542,-0.0939 0.174729,-0.15139 0.27404,-0.15268 z m -6.726003,0.0916 c 0.186367,0.006 0.368743,0.043 0.530136,0.11467 0.338171,0.15021 0.458169,0.28188 0.392355,0.43007 -0.06152,0.13851 -0.233501,0.15163 -0.489988,0.0377 -0.789353,-0.3506 -1.640021,0.13157 -1.33127,0.7546 0.06805,0.13736 0.48651,0.3931 0.929791,0.56815 0.61662,0.24355 0.84715,0.41138 0.981496,0.71445 0.226146,0.5102 -0.09501,1.2604 -0.612257,1.43043 -0.718477,0.23617 -2.110146,-0.26453 -1.920716,-0.69103 0.07158,-0.16115 0.195029,-0.1397 0.530136,0.0913 0.351399,0.24217 0.548643,0.26651 1.009174,0.12531 0.472033,-0.14473 0.565156,-0.2328 0.530137,-0.50277 -0.03196,-0.24621 -0.272322,-0.45055 -0.968723,-0.82394 -1.02049,-0.54714 -1.225637,-0.91023 -0.912454,-1.61535 0.177348,-0.39932 0.773083,-0.65279 1.332183,-0.63355 z m 2.149438,0.35403 c 0.0464,-0.002 0.106777,0.0163 0.186444,0.0517 0.164447,0.073 0.253133,0.22333 0.201044,0.34065 -0.06989,0.15735 0.02323,0.23576 0.371673,0.31389 0.539698,0.12102 0.51789,0.35901 -0.04167,0.45501 l -0.379581,0.0651 -0.0012,0.99944 c -0.0011,0.95063 0.02124,1.00406 0.457748,1.10194 0.598816,0.13428 0.463058,0.55005 -0.14508,0.44436 -0.601,-0.10444 -0.747749,-0.40799 -0.786535,-1.62933 -0.01886,-0.59402 -0.09581,-1.05614 -0.171237,-1.02712 -0.07537,0.029 -0.188824,-0.0232 -0.252142,-0.11588 -0.08461,-0.12374 -0.04964,-0.20121 0.131697,-0.29108 0.13593,-0.0674 0.263772,-0.2724 0.284078,-0.45531 0.0191,-0.17191 0.0562,-0.24948 0.144776,-0.25336 z m 2.208747,0.66549 c 0.07414,-0.001 0.18601,0.0262 0.302326,0.0779 0.186106,0.0827 0.464219,0.0878 0.618036,0.0116 0.189884,-0.0941 0.305378,-0.0713 0.360115,0.0709 0.05472,0.14216 -0.03347,0.26006 -0.274953,0.36711 -0.46929,0.20802 -0.68094,0.72065 -0.673695,1.63208 v 3e-4 c 0.007,0.88301 -0.07682,1.13447 -0.339737,1.01769 -0.163669,-0.0727 -0.231632,-2.81579 -0.07786,-3.14432 0.01021,-0.0218 0.04129,-0.0325 0.08577,-0.0331 z m 2.468492,0.0864 c 0.04588,0.001 0.07642,0.008 0.0806,0.0189 0.0083,0.022 0.0089,0.74669 0.0012,1.61018 -0.01219,1.37588 -0.04568,1.55574 -0.270999,1.45566 -0.356174,-0.15818 -0.340539,-3.02471 0.01673,-3.07345 0.06543,-0.009 0.126575,-0.0126 0.172454,-0.0112 z m 5.371009,0.0103 c 0.551402,-0.0223 1.095633,0.33991 1.341916,0.94104 0.135398,0.33051 0.220935,0.65774 0.190094,0.72723 -0.03086,0.0695 -0.513996,0.12152 -1.073655,0.11558 -1.095938,-0.0116 -1.369384,0.19851 -0.884168,0.67977 0.330093,0.3274 0.479953,0.34224 1.171592,0.1168 0.575259,-0.18752 0.767024,0.1574 0.25792,0.46383 -0.521584,0.31392 -1.405995,0.18424 -1.778677,-0.26096 -0.71155,-0.85003 -0.490042,-2.3636 0.395701,-2.70452 0.124454,-0.0479 0.25203,-0.0736 0.379277,-0.0788 z m 5.503924,0.0745 c 0.78049,-0.0123 1.110065,0.66022 1.116539,2.1686 0.0024,0.55105 -0.0063,1.02636 -0.01946,1.05601 -0.02654,0.0598 -0.295044,-0.0416 -0.331829,-0.12531 -0.0128,-0.0291 -0.270595,0.01 -0.572719,0.0864 -0.657125,0.16677 -1.28062,-0.0727 -1.427079,-0.54838 -0.254986,-0.82823 0.07515,-1.20018 1.114714,-1.25615 0.605867,-0.0326 0.692292,-0.0823 0.670044,-0.38445 -0.03464,-0.47107 -0.44534,-0.61978 -1.149692,-0.41608 -0.837799,0.24231 -0.851571,-0.19519 -0.0146,-0.46443 0.229701,-0.0739 0.433969,-0.11337 0.614083,-0.11619 z m 3.389462,0.014 c 0.177188,-0.002 0.386283,0.0938 0.406648,0.24302 0.01839,0.13482 -0.1133,0.25228 -0.330305,0.29472 -0.439166,0.0858 -0.751284,0.71886 -0.708672,1.43742 0.06496,1.09474 0.0065,1.35879 -0.272525,1.23485 -0.186588,-0.0829 -0.254038,-0.50785 -0.245445,-1.54782 0.0065,-0.7885 0.04205,-1.5011 0.07877,-1.58372 0.0367,-0.0827 0.22677,-0.0793 0.422463,0.008 0.195687,0.0869 0.381051,0.10092 0.412128,0.031 0.0356,-0.0802 0.130621,-0.1161 0.236934,-0.1171 z m 2.31733,0.0441 c 0.09001,-0.003 0.18324,0.004 0.279512,0.0204 0.522413,0.0908 1.064462,0.66828 1.15669,1.23242 0.09418,0.57602 -0.0187,0.63794 -1.025904,0.5645 -1.293321,-0.0943 -1.607505,0.20427 -0.840977,0.79901 0.247846,0.1923 0.482886,0.21003 0.957772,0.0727 0.656578,-0.18989 0.967495,0.0328 0.515233,0.36894 -0.414905,0.30833 -1.27634,0.28503 -1.759214,-0.0477 -1.242386,-0.85622 -0.633341,-2.96991 0.716888,-3.01019 z m -10.877367,0.37171 c -0.0684,0.002 -0.151238,0.0133 -0.257616,0.0307 -0.441073,0.0721 -0.791034,0.49062 -0.61986,0.74122 0.0451,0.066 0.404943,0.11919 0.799614,0.11801 0.394671,-0.001 0.732341,-0.0358 0.750645,-0.0769 0.01828,-0.0412 -0.08025,-0.25083 -0.218988,-0.46596 -0.175256,-0.27178 -0.248587,-0.35286 -0.453795,-0.34704 z m 10.952186,0.0982 c -0.325266,-0.009 -0.660103,0.15716 -0.813602,0.50276 -0.183092,0.41224 -0.07414,0.4638 0.909104,0.43007 0.735969,-0.0252 0.773467,-0.0473 0.661533,-0.38779 -0.115989,-0.35285 -0.431768,-0.53629 -0.757035,-0.54504 z m -5.71409,1.27196 c -0.06976,-0.004 -0.143687,-0.004 -0.218077,9.2e-4 -0.395647,0.0235 -0.56622,0.12115 -0.635071,0.36376 -0.10908,0.38422 0.3644,0.76026 0.802048,0.63689 0.318693,-0.0898 0.625867,-0.6639 0.474175,-0.88599 -0.04135,-0.0606 -0.21381,-0.10474 -0.423075,-0.11558 z"
       sodipodi:nodetypes="ccccccccscssscscccssccssssscccsssscssssssssssssssscccsssscccsscscsccccccscsccsccsccccsccssccsscsscccsscssccscsscscsccccccsssscsscscsssssssssssssscscccccsssscccsscssscsssccccsccsssssssssccssssccssssssssccsssssccsscscscccsssccssccscsscsssssssccscsssssssssssssscssssscssssssccsscscssscsssssssscssccsccssscsscsss" /><path
       id="rect2"
       style="fill:#000000;stroke-width:0.196396"
       d="m 0,0 v 76.2 l 135.46667,0 V 0 Z m 66.513084,27.093374 c 0.100299,0.0022 0.195633,0.0084 0.282702,0.01918 0.480778,0.05961 1.108557,0.192569 1.210599,0.256235 0.04632,0.02888 -0.152009,0.397822 -0.72843,1.353677 -0.435781,0.722659 -0.803602,1.313884 -0.817423,1.314166 -0.01381,2.9e-4 -0.373137,-0.56691 -0.798244,-1.260464 -0.425106,-0.693554 -0.775376,-1.296179 -0.778679,-1.339484 -0.01345,-0.176495 0.927381,-0.358476 1.629475,-0.343309 z m -4.499853,2.933284 2.160743,3.606862 c 1.188472,1.98366 2.168408,3.626161 2.177619,3.649825 0.0092,0.02368 -0.01336,0.04008 -0.05025,0.03644 -0.03682,-0.0037 -0.248015,-0.02676 -0.469127,-0.0514 -2.058712,-0.229478 -3.438579,-1.889022 -3.817834,-4.590761 -0.07749,-0.551986 -0.09646,-1.865889 -0.03414,-2.380538 z m 8.864681,0.05946 c 0.09526,-0.0083 0.140899,1.673216 0.05792,2.346398 -0.304374,2.470376 -1.350753,4.087535 -3.008468,4.647915 -0.229707,0.07766 -0.557762,0.154381 -0.728814,0.170697 -0.171052,0.01633 -0.384672,0.04105 -0.474496,0.05485 -0.08421,0.01288 -0.154237,0.01245 -0.162641,3.84e-4 -2.11e-4,-4.16e-4 -3.12e-4,-0.0011 -3.84e-4,-0.0015 v -3.84e-4 c 0,-0.02034 4.239877,-7.119699 4.306141,-7.210273 0.0036,-0.0049 0.0073,-0.0078 0.01074,-0.0081 z m 4.333759,10.262469 c 0.217717,0.0011 0.435019,0.02125 0.645959,0.06099 0.488861,0.0921 1.152215,0.394767 1.374774,0.627547 l 0.143844,0.150367 -0.161106,0.200615 -0.161106,0.200616 -0.258921,-0.196013 c -0.413816,-0.313422 -0.827754,-0.454899 -1.41505,-0.484086 -0.869853,-0.0432 -1.541528,0.195346 -2.084791,0.741089 -1.14899,1.154231 -0.841003,3.239365 0.584585,3.958995 0.519636,0.262316 0.816152,0.323849 1.443435,0.299197 0.589092,-0.02316 0.887589,-0.09939 1.275425,-0.325665 l 0.213658,-0.124666 v -1.025326 -1.025326 h 0.276566 0.276182 v 1.168021 1.168404 l -0.238591,0.16149 c -0.738848,0.499988 -1.832542,0.69244 -2.771028,0.487154 -1.120256,-0.245058 -2.032669,-1.143442 -2.295764,-2.260091 -0.106585,-0.452378 -0.0729,-1.281429 0.06828,-1.680875 0.246424,-0.696901 0.706898,-1.292054 1.260465,-1.628324 0.511697,-0.310841 1.170034,-0.477344 1.823186,-0.474113 z m 13.259429,0.03759 0.260072,0.01534 0.260071,0.01534 1.863082,2.347548 c 1.024695,1.29116 1.90255,2.387052 1.950918,2.43539 0.08375,0.0837 0.08784,-0.02881 0.08784,-2.360207 V 40.39154 h 0.301501 0.30188 v 3.015372 3.014989 H 93.248283 93.000486 L 91.074888,43.9869 c -1.059061,-1.339357 -1.942474,-2.436179 -1.963199,-2.437308 -0.02071,-0.0015 -0.03759,1.094521 -0.03759,2.435006 v 2.437308 h -0.519761 -0.520143 l -0.613738,-1.369404 c -0.337554,-0.753159 -0.877847,-1.962738 -1.201009,-2.688173 -0.323168,-0.725435 -0.59915,-1.318442 -0.612971,-1.317618 -0.01381,7.42e-4 -0.373792,0.786548 -0.800161,1.746085 -0.426368,0.959536 -0.943163,2.117044 -1.148457,2.571946 -0.205286,0.454895 -0.392886,0.878756 -0.416959,0.942088 -0.04134,0.108775 -0.06986,0.115093 -0.51017,0.113542 l -0.466057,-0.0015 -0.682784,-0.96587 -0.683167,-0.965487 -1.063302,0.01458 -1.0633,0.01419 v 0.952828 0.952829 h -0.326433 -0.326815 v -3.014989 -3.015372 h 1.374006 c 1.194856,0 1.423677,0.01271 1.754907,0.09743 0.710938,0.18183 1.133804,0.497333 1.404694,1.047574 0.247262,0.502267 0.247314,1.328494 0,1.830858 -0.189892,0.385721 -0.49113,0.677506 -0.897976,0.869973 -0.18782,0.08885 -0.259074,0.147697 -0.232069,0.191411 0.105805,0.171274 1.129927,1.591693 1.161883,1.611445 h 3.83e-4 v 3.84e-4 h 3.83e-4 3.84e-4 3.84e-4 3.84e-4 3.83e-4 c 0.02871,-0.0085 0.196194,-0.333893 0.380518,-0.740322 0.19027,-0.419539 0.455055,-0.997069 0.588421,-1.283479 0.133374,-0.286411 0.242427,-0.527631 0.242427,-0.535871 0,-0.0082 0.08296,-0.192237 0.184505,-0.408903 0.101544,-0.216665 0.417613,-0.902884 0.702346,-1.524755 l 0.517842,-1.130429 h 0.311856 0.311855 l 0.485237,1.055245 c 0.266829,0.580415 0.819836,1.790296 1.228627,2.688557 0.408791,0.898261 0.762627,1.654614 0.786736,1.680876 0.02501,0.02724 0.04411,-1.13517 0.04411,-2.7039 z m -25.57677,7.68e-4 0.331035,0.01496 0.331034,0.01496 0.390875,0.879179 c 0.321157,0.722622 1.275413,2.887168 1.790581,4.061797 0.06451,0.14712 0.136029,0.255594 0.159188,0.241275 0.02316,-0.01433 0.559233,-1.191906 1.191036,-2.616826 l 1.148841,-2.590742 h 0.292677 c 0.157228,0 0.286819,0.01678 0.29306,0.03682 v 3.84e-4 c 1.8e-5,1.61e-4 -2e-6,6.05e-4 0,7.67e-4 2.67e-4,0.02071 -0.593355,1.37706 -1.319154,3.014222 l -1.319537,2.97663 -0.315691,7.66e-4 -0.316076,7.68e-4 -0.09168,-0.213658 c -0.138169,-0.32161 -0.740584,-1.685956 -1.525906,-3.454962 -0.3865,-0.870626 -0.778745,-1.758863 -0.871509,-1.974319 z m -18.53144,0.0042 h 0.822408 0.82241 l 0.0058,2.876898 c 0.003,1.582321 0.0091,2.933622 0.01266,3.002714 l 0.0069,0.125433 -0.917156,0.01381 -0.917154,0.01343 v -1.357896 c 0,-0.746872 -0.01719,-1.35739 -0.03798,-1.356744 -0.02071,7.12e-4 -0.321045,0.481224 -0.66744,1.067904 l -0.629849,1.066753 -0.456084,0.01419 -0.456467,0.01458 -0.647495,-1.044123 -0.647493,-1.044121 -0.01343,1.318769 -0.01343,1.31877 h -0.929046 -0.928663 v -3.014605 -3.015372 l 0.841589,0.0015 0.841972,0.0015 0.975843,1.608378 c 0.773186,1.27414 0.988628,1.594977 1.036067,1.543552 0.03296,-0.0357 0.473139,-0.760402 0.978146,-1.610296 z m 2.700064,3.84e-4 h 2.437307 2.437308 v 0.753747 0.753747 h -1.457245 -1.457627 v 0.377065 0.376683 h 1.281561 1.281562 v 0.728829 0.728814 h -1.281562 -1.281561 v 0.401232 0.401231 l 1.516316,0.01343 1.516317,0.01304 0.0038,0.741472 0.0038,0.741089 h -2.500216 -2.500216 l 3.84e-4,-3.014989 z m 5.377113,0 h 2.76374 2.764123 v 0.779063 0.778681 h -0.879564 -0.879563 v 2.236308 2.236309 H 55.203807 54.19881 v -2.236309 -2.236308 h -0.879563 -0.87918 v -0.778681 z m 7.202217,0 h 0.990037 0.990036 l 0.367859,0.841972 c 0.20231,0.462956 0.467528,1.067697 0.589189,1.344087 0.12166,0.276389 0.353383,0.80793 0.515157,1.181062 0.161766,0.373124 0.486608,1.119292 0.721526,1.658243 l 0.426931,0.97968 -0.987735,0.01381 c -0.543375,0.0075 -1.012505,0.0046 -1.042204,-0.0073 -0.02969,-0.01136 -0.390484,-0.88265 -0.801695,-1.93596 -0.411211,-1.053302 -0.764024,-1.914864 -0.784051,-1.914864 -0.02004,0 -0.383337,0.870332 -0.807449,1.934427 l -0.771008,1.934809 h -1.018039 c -0.55689,0 -1.013213,-0.0068 -1.018038,-0.01496 0.0021,-0.01282 0.139237,-0.333052 0.306485,-0.715772 0.168536,-0.385647 0.380216,-0.870587 0.470277,-1.077878 0.35099,-0.807888 1.728788,-3.952567 1.789047,-4.083276 z m 9.807152,0 h 0.306102 0.306102 l 1.339868,2.935586 c 0.737074,1.614499 1.354117,2.97115 1.370937,3.014989 0.02605,0.06784 -0.01899,0.07979 -0.301499,0.07979 -0.178329,0 -0.325025,-0.01897 -0.331802,-0.04181 V 46.3797 c -1.8e-5,-1.84e-4 0,-5.82e-4 0,-7.67e-4 0,-0.0409 -0.600271,-1.389291 -2.111259,-4.744196 -0.138423,-0.307347 -0.262704,-0.552883 -0.286539,-0.568091 -1.84e-4,-9.5e-5 -9.81e-4,-3.21e-4 -0.0012,-3.83e-4 h -3.83e-4 -3.84e-4 -3.84e-4 -3.83e-4 v 3.83e-4 c -0.01269,0.01269 -0.558128,1.217192 -1.212133,2.676666 l -1.189118,2.653266 -0.313007,0.01534 c -0.16401,0.0079 -0.299887,0.0057 -0.312239,-0.0035 v -3.84e-4 h -3.83e-4 v -3.83e-4 -3.83e-4 -3.84e-4 c 0,-0.01982 0.290497,-0.658111 1.605692,-3.527843 0.392669,-0.856805 0.807966,-1.766994 0.922909,-2.022652 z m 24.39839,0 h 2.439995 2.439997 l -0.0153,0.263907 -0.0149,0.263908 -1.065991,0.01343 -1.065988,0.01381 0.01036,2.737656 0.01074,2.737656 H 96.272864 95.958706 V 43.6831 40.944292 H 94.903459 93.847826 V 40.668111 Z M 78.77212,40.937755 v 1.535881 1.536263 l 0.816655,-0.0015 c 0.449134,-7.43e-4 0.98643,-0.0236 1.19372,-0.05025 0.939065,-0.120822 1.457245,-0.64756 1.457245,-1.481027 0,-0.666646 -0.239423,-1.065111 -0.792106,-1.342169 -0.472976,-0.237101 -0.995018,-0.174496 -1.505576,-0.181436 z"
       sodipodi:nodetypes="cccccsccsssssscccccsccscsscccssssssccccccssssccccccccsscssscccssscccccccccscccsscsssccccccccccccssssssccccccccsssscccccssscccccssccsccscccccsscccccccccscscccccccccccccccccccccccccccccccccccccccccccccccccccccccccccccccssccccssccscsscccccccsccsscccccccccccccccssccccccccccccccccccccccccsscc" /></g></svg>
