<?xml version="1.0" encoding="UTF-8" standalone="no"?>
<!-- Created with Inkscape (http://www.inkscape.org/) -->

<svg
   width="324.0119"
   height="51.691811"
   viewBox="0 0 85.728145 13.676792"
   version="1.1"
   id="svg1"
   xml:space="preserve"
   sodipodi:docname="meta.svg"
   inkscape:version="1.4.2 (f4327f4, 2025-05-13)"
   xmlns:inkscape="http://www.inkscape.org/namespaces/inkscape"
   xmlns:sodipodi="http://sodipodi.sourceforge.net/DTD/sodipodi-0.dtd"
   xmlns="http://www.w3.org/2000/svg"
   xmlns:svg="http://www.w3.org/2000/svg"><sodipodi:namedview
     id="namedview1"
     pagecolor="#505050"
     bordercolor="#eeeeee"
     borderopacity="1"
     inkscape:showpageshadow="0"
     inkscape:pageopacity="0"
     inkscape:pagecheckerboard="0"
     inkscape:deskcolor="#505050"
     inkscape:document-units="mm"
     inkscape:zoom="1.4702523"
     inkscape:cx="77.877788"
     inkscape:cy="160.17659"
     inkscape:window-width="2560"
     inkscape:window-height="1406"
     inkscape:window-x="-11"
     inkscape:window-y="-11"
     inkscape:window-maximized="1"
     inkscape:current-layer="layer1" /><defs
     id="defs1" /><g
     inkscape:label="Layer 1"
     inkscape:groupmode="layer"
     id="layer1"
     transform="translate(-28.219238,-38.420986)"><path
       id="rect2"
       style="fill:#000000;stroke-width:0.264583"
       d="m 79.747587,41.129273 c 0.293307,0.0015 0.586054,0.02863 0.870231,0.08217 0.65859,0.12407 1.552254,0.531826 1.852084,0.845426 l 0.193786,0.202572 -0.217041,0.270268 -0.217041,0.270268 -0.348816,-0.264067 c -0.55749,-0.42224 -1.115143,-0.612837 -1.906343,-0.652157 -1.17186,-0.0582 -2.076734,0.263169 -2.808614,0.998389 -1.54791,1.55497 -1.132992,4.364045 0.787548,5.333525 0.70005,0.35339 1.099514,0.436286 1.944584,0.403076 0.79362,-0.0312 1.195752,-0.133893 1.718242,-0.438733 l 0.287838,-0.167949 V 46.63075 45.249439 h 0.372587 0.37207 v 1.573548 1.574064 l -0.321427,0.217558 c -0.99537,0.67358 -2.468786,0.93285 -3.733106,0.65629 -1.5092,-0.33014 -2.738394,-1.540435 -3.092834,-3.044775 -0.14359,-0.60944 -0.09822,-1.726331 0.09198,-2.264461 0.33198,-0.93886 0.952327,-1.740645 1.698087,-2.193665 0.689355,-0.418762 1.576261,-0.643073 2.456181,-0.638721 z m 17.862992,0.05064 0.350367,0.02067 0.350366,0.02067 2.509928,3.162597 c 1.38046,1.73944 2.5631,3.215817 2.62826,3.280937 0.11283,0.11276 0.11834,-0.03881 0.11834,-3.179651 v -3.29799 h 0.40618 0.40669 v 4.062284 4.061768 h -0.33435 -0.33383 l -2.59415,-3.28042 c -1.426757,-1.80437 -2.616884,-3.282 -2.644804,-3.28352 -0.0279,-0.002 -0.05064,1.474529 -0.05064,3.280419 v 3.283521 H 97.72272 97.021988 l -0.826823,-1.844849 c -0.45475,-1.01465 -1.182629,-2.644184 -1.617989,-3.621484 -0.43537,-0.9773 -0.80717,-1.776195 -0.82579,-1.775085 -0.0186,10e-4 -0.50357,1.059631 -1.07797,2.352311 -0.5744,1.29268 -1.270622,2.852065 -1.547192,3.464905 -0.27656,0.61283 -0.529293,1.183853 -0.561723,1.269173 -0.0557,0.14654 -0.09412,0.155052 -0.687297,0.152962 l -0.627868,-0.0021 -0.919841,-1.301213 -0.920357,-1.300695 -1.432471,0.01964 -1.43247,0.01912 v 1.283642 1.283643 h -0.43977 -0.440283 V 45.249434 41.18715 h 1.85105 c 1.6097,0 1.917966,0.01713 2.364196,0.131258 0.95777,0.24496 1.527451,0.670004 1.892391,1.411284 0.33311,0.67665 0.33318,1.789736 0,2.466516 -0.25582,0.51964 -0.661645,0.912731 -1.209745,1.172021 -0.25303,0.1197 -0.349022,0.198976 -0.312642,0.257866 0.14254,0.23074 1.522229,2.144316 1.565279,2.170926 h 5.17e-4 v 5.17e-4 h 5.16e-4 5.17e-4 5.17e-4 5.17e-4 5.16e-4 c 0.03867,-0.01149 0.264311,-0.449817 0.512631,-0.997355 0.25633,-0.5652 0.613046,-1.343243 0.792716,-1.729093 0.17968,-0.38585 0.326595,-0.71082 0.326595,-0.72192 0,-0.0111 0.111764,-0.258981 0.248564,-0.550871 0.1368,-0.29189 0.562605,-1.216358 0.946195,-2.054138 l 0.697632,-1.522904 h 0.42013 0.420129 l 0.653707,1.421618 c 0.35947,0.78193 1.104476,2.411871 1.655196,3.622001 0.55072,1.21013 1.027404,2.229082 1.059884,2.264462 0.0337,0.0367 0.05943,-1.529292 0.05943,-3.642672 z m -34.456811,10e-4 0.445968,0.02015 0.445967,0.02015 0.526583,1.184423 c 0.43266,0.97351 1.718226,3.889568 2.412256,5.472018 0.0869,0.1982 0.183257,0.344335 0.214457,0.325045 0.0312,-0.0193 0.753393,-1.605727 1.604553,-3.525367 l 1.547709,-3.490226 h 0.394292 c 0.211816,0 0.3864,0.0226 0.394808,0.04961 v 5.17e-4 c 2.4e-5,2.18e-4 -3e-6,8.16e-4 0,10e-4 3.6e-4,0.0279 -0.799363,1.855164 -1.777153,4.060734 l -1.777669,4.010091 -0.425297,10e-4 -0.425814,0.001 -0.123507,-0.287838 c -0.18614,-0.43327 -0.997708,-2.271306 -2.055688,-4.654496 -0.52069,-1.1729 -1.049119,-2.369526 -1.174089,-2.659786 z m -24.965401,0.0057 h 1.107942 1.107943 l 0.0078,3.875733 c 0.004,2.13169 0.01225,3.952151 0.01705,4.045231 l 0.0093,0.168982 -1.235584,0.0186 -1.235583,0.01809 v -1.829346 c 0,-1.00618 -0.02316,-1.828665 -0.05116,-1.827795 -0.0279,9.6e-4 -0.43251,0.648302 -0.89917,1.438672 l -0.848527,1.437121 -0.614433,0.01912 -0.614949,0.01964 -0.872299,-1.406633 -0.872298,-1.406632 -0.01809,1.776635 -0.01809,1.776636 H 31.90658 30.655493 V 45.249434 41.18715 l 1.133781,0.0021 1.134298,0.0021 1.314648,2.166793 c 1.04163,1.71651 1.331871,2.14874 1.395781,2.07946 0.0444,-0.0481 0.637409,-1.024407 1.317749,-2.169377 z m 3.637504,5.17e-4 h 3.28352 3.283521 v 1.015442 1.015442 H 46.429724 44.46602 v 0.507979 0.507463 h 1.726509 1.72651 v 0.981852 0.981852 h -1.72651 -1.726509 v 0.540536 0.540535 l 2.042769,0.01809 2.042769,0.01757 0.0052,0.998905 0.0052,0.998389 h -3.36827 -3.36827 l 5.17e-4,-4.061768 z m 7.244002,0 h 3.723287 3.723804 v 1.049548 1.049032 h -1.184941 -1.18494 v 3.012736 3.012736 H 52.79316 51.439237 V 46.298466 43.28573 h -1.18494 -1.184424 v -1.049032 z m 9.702767,0 h 1.333769 1.333768 l 0.495577,1.134298 c 0.27255,0.62369 0.62985,1.438392 0.79375,1.810742 0.1639,0.37235 0.476075,1.088437 0.694015,1.591117 0.21793,0.50267 0.655554,1.507902 0.972034,2.233972 l 0.575158,1.319817 -1.330668,0.0186 c -0.73203,0.0101 -1.364039,0.0062 -1.404049,-0.0098 -0.04,-0.0153 -0.526057,-1.1891 -1.080037,-2.60811 -0.55398,-1.419 -1.029286,-2.579688 -1.056266,-2.579688 -0.027,0 -0.516429,1.172503 -1.087789,2.606043 l -1.038696,2.606559 h -1.371493 c -0.750238,0 -1.364992,-0.0091 -1.371492,-0.02015 0.0028,-0.01727 0.187578,-0.448685 0.412894,-0.964282 0.22705,-0.51954 0.512223,-1.172848 0.633553,-1.452108 0.47285,-1.08838 2.329009,-5.324866 2.410189,-5.500956 z m 13.212113,0 h 0.412378 0.412378 l 1.805058,3.954797 c 0.99298,2.17504 1.824256,4.002708 1.846916,4.061768 0.0351,0.0914 -0.02559,0.107487 -0.406177,0.107487 -0.240244,0 -0.437871,-0.02555 -0.447001,-0.05633 v -5.17e-4 c -2.5e-5,-2.48e-4 0,-7.85e-4 0,-10e-4 0,-0.0551 -0.808681,-1.871641 -2.844271,-6.391341 -0.186482,-0.414056 -0.353913,-0.744839 -0.386023,-0.765328 -2.47e-4,-1.27e-4 -0.0013,-4.32e-4 -0.0015,-5.16e-4 h -5.17e-4 -5.17e-4 -5.17e-4 -5.16e-4 v 5.16e-4 c -0.0171,0.0171 -0.751906,1.639792 -1.632976,3.605982 l -1.601969,3.574459 -0.42168,0.02067 c -0.220953,0.01058 -0.404006,0.0077 -0.420646,-0.0047 v -5.17e-4 h -5.17e-4 v -5.16e-4 -5.17e-4 -5.17e-4 c 0,-0.0267 0.391356,-0.886601 2.163176,-4.752681 0.529,-1.15428 1.088485,-2.380479 1.243335,-2.724899 z m 32.869307,0 h 3.28714 3.28714 l -0.0207,0.355534 -0.0202,0.355534 -1.43609,0.01809 -1.43609,0.0186 0.014,3.688147 0.0145,3.688147 h -0.42271 -0.42323 v -3.689697 -3.689698 h -1.42162 -1.42214 v -0.37207 z m -20.309866,0.735872 v 2.069125 2.069641 l 1.100191,-0.0021 c 0.60507,-0.001 1.32891,-0.0318 1.60817,-0.0677 1.2651,-0.16277 1.963188,-0.872387 1.963188,-1.995227 0,-0.8981 -0.322548,-1.434909 -1.067118,-1.808159 -0.63719,-0.31942 -1.34048,-0.235079 -2.0283,-0.244429 z"
       sodipodi:nodetypes="ccccccssssccccccccsscssccccsscccccccccscccsscsssccccccccccccssssssccccccccsssscccccsssccccccsccsccccccccsscccccccccscscccccccccccccccccccccccccccccccccccccccccccccccccccccccccccccccssccccssccscsccccccccsccsscccccccccccccccssccccccccccccccccccccccccssccscc" /></g></svg>
