<?xml version="1.0" encoding="UTF-8" standalone="no"?>
<!-- Created with Inkscape (http://www.inkscape.org/) -->

<svg
   width="512"
   height="288"
   viewBox="0 0 135.46666 76.2"
   version="1.1"
   id="svg1"
   xml:space="preserve"
   sodipodi:docname="mv_nobg.svg"
   inkscape:version="1.4.2 (f4327f4, 2025-05-13)"
   xmlns:inkscape="http://www.inkscape.org/namespaces/inkscape"
   xmlns:sodipodi="http://sodipodi.sourceforge.net/DTD/sodipodi-0.dtd"
   xmlns="http://www.w3.org/2000/svg"
   xmlns:svg="http://www.w3.org/2000/svg"><sodipodi:namedview
     id="namedview1"
     pagecolor="#505050"
     bordercolor="#eeeeee"
     borderopacity="1"
     inkscape:showpageshadow="0"
     inkscape:pageopacity="0"
     inkscape:pagecheckerboard="0"
     inkscape:deskcolor="#505050"
     inkscape:document-units="mm"
     inkscape:zoom="1.4702523"
     inkscape:cx="334.29636"
     inkscape:cy="174.45985"
     inkscape:window-width="2560"
     inkscape:window-height="1406"
     inkscape:window-x="-11"
     inkscape:window-y="-11"
     inkscape:window-maximized="1"
     inkscape:current-layer="layer1"
     showguides="true"><sodipodi:guide
       position="39.770665,121.00948"
       orientation="1,0"
       id="guide1"
       inkscape:locked="false" /><sodipodi:guide
       position="94.657783,108.95231"
       orientation="1,0"
       id="guide2"
       inkscape:locked="false" /></sodipodi:namedview><defs
     id="defs1" /><g
     inkscape:label="Layer 1"
     inkscape:groupmode="layer"
     id="layer1"><path
       id="rect2"
       style="fill:#000000;stroke-width:0.196396"
       d="m 66.513084,27.093374 c 0.100299,0.0022 0.195633,0.0084 0.282702,0.01918 0.480778,0.05961 1.108557,0.192569 1.210599,0.256235 0.04632,0.02888 -0.152009,0.397822 -0.72843,1.353677 -0.435781,0.722659 -0.803602,1.313884 -0.817423,1.314166 -0.01381,2.9e-4 -0.373137,-0.56691 -0.798244,-1.260464 -0.425106,-0.693554 -0.775376,-1.296179 -0.778679,-1.339484 -0.01345,-0.176495 0.927381,-0.358476 1.629475,-0.343309 z m -4.499853,2.933284 2.160743,3.606862 c 1.188472,1.98366 2.168408,3.626161 2.177619,3.649825 0.0092,0.02368 -0.01336,0.04008 -0.05025,0.03644 -0.03682,-0.0037 -0.248015,-0.02676 -0.469127,-0.0514 -2.058712,-0.229478 -3.438579,-1.889022 -3.817834,-4.590761 -0.07749,-0.551986 -0.09646,-1.865889 -0.03414,-2.380538 z m 8.864681,0.05946 c 0.09526,-0.0083 0.140899,1.673216 0.05792,2.346398 -0.304374,2.470376 -1.350753,4.087535 -3.008468,4.647915 -0.229707,0.07766 -0.557762,0.154381 -0.728814,0.170697 -0.171052,0.01633 -0.384672,0.04105 -0.474496,0.05485 -0.08421,0.01288 -0.154237,0.01245 -0.162641,3.84e-4 -2.11e-4,-4.16e-4 -3.12e-4,-0.0011 -3.84e-4,-0.0015 v -3.84e-4 c 0,-0.02034 4.239877,-7.119699 4.306141,-7.210273 0.0036,-0.0049 0.0073,-0.0078 0.01074,-0.0081 z m 4.333759,10.262469 c 0.217717,0.0011 0.435019,0.02125 0.645959,0.06099 0.488861,0.0921 1.152215,0.394767 1.374774,0.627547 l 0.143844,0.150367 -0.161106,0.200615 -0.161106,0.200616 -0.258921,-0.196013 c -0.413816,-0.313422 -0.827754,-0.454899 -1.41505,-0.484086 -0.869853,-0.0432 -1.541528,0.195346 -2.084791,0.741089 -1.14899,1.154231 -0.841003,3.239365 0.584585,3.958995 0.519636,0.262316 0.816152,0.323849 1.443435,0.299197 0.589092,-0.02316 0.887589,-0.09939 1.275425,-0.325665 l 0.213658,-0.124666 v -1.025326 -1.025326 h 0.276566 0.276182 v 1.168021 1.168404 l -0.238591,0.16149 c -0.738848,0.499988 -1.832542,0.69244 -2.771028,0.487154 -1.120256,-0.245058 -2.032669,-1.143442 -2.295764,-2.260091 -0.106585,-0.452378 -0.0729,-1.281429 0.06828,-1.680875 0.246424,-0.696901 0.706898,-1.292054 1.260465,-1.628324 0.511697,-0.310841 1.170034,-0.477344 1.823186,-0.474113 z m 13.259429,0.03759 0.260072,0.01534 0.260071,0.01534 1.863082,2.347548 c 1.024695,1.29116 1.90255,2.387052 1.950918,2.43539 0.08375,0.0837 0.08784,-0.02881 0.08784,-2.360207 V 40.39154 h 0.301501 0.30188 v 3.015372 3.014989 H 93.248283 93.000486 L 91.074888,43.9869 c -1.059061,-1.339357 -1.942474,-2.436179 -1.963199,-2.437308 -0.02071,-0.0015 -0.03759,1.094521 -0.03759,2.435006 v 2.437308 h -0.519761 -0.520143 l -0.613738,-1.369404 c -0.337554,-0.753159 -0.877847,-1.962738 -1.201009,-2.688173 -0.323168,-0.725435 -0.59915,-1.318442 -0.612971,-1.317618 -0.01381,7.42e-4 -0.373792,0.786548 -0.800161,1.746085 -0.426368,0.959536 -0.943163,2.117044 -1.148457,2.571946 -0.205286,0.454895 -0.392886,0.878756 -0.416959,0.942088 -0.04134,0.108775 -0.06986,0.115093 -0.51017,0.113542 l -0.466057,-0.0015 -0.682784,-0.96587 -0.683167,-0.965487 -1.063302,0.01458 -1.0633,0.01419 v 0.952828 0.952829 h -0.326433 -0.326815 v -3.014989 -3.015372 h 1.374006 c 1.194856,0 1.423677,0.01271 1.754907,0.09743 0.710938,0.18183 1.133804,0.497333 1.404694,1.047574 0.247262,0.502267 0.247314,1.328494 0,1.830858 -0.189892,0.385721 -0.49113,0.677506 -0.897976,0.869973 -0.18782,0.08885 -0.259074,0.147697 -0.232069,0.191411 0.105805,0.171274 1.129927,1.591693 1.161883,1.611445 h 3.83e-4 v 3.84e-4 h 3.83e-4 3.84e-4 3.84e-4 3.84e-4 3.83e-4 c 0.02871,-0.0085 0.196194,-0.333893 0.380518,-0.740322 0.19027,-0.419539 0.455055,-0.997069 0.588421,-1.283479 0.133374,-0.286411 0.242427,-0.527631 0.242427,-0.535871 0,-0.0082 0.08296,-0.192237 0.184505,-0.408903 0.101544,-0.216665 0.417613,-0.902884 0.702346,-1.524755 l 0.517842,-1.130429 h 0.311856 0.311855 l 0.485237,1.055245 c 0.266829,0.580415 0.819836,1.790296 1.228627,2.688557 0.408791,0.898261 0.762627,1.654614 0.786736,1.680876 0.02501,0.02724 0.04411,-1.13517 0.04411,-2.7039 z m -25.57677,7.68e-4 0.331035,0.01496 0.331034,0.01496 0.390875,0.879179 c 0.321157,0.722622 1.275413,2.887168 1.790581,4.061797 0.06451,0.14712 0.136029,0.255594 0.159188,0.241275 0.02316,-0.01433 0.559233,-1.191906 1.191036,-2.616826 l 1.148841,-2.590742 h 0.292677 c 0.157228,0 0.286819,0.01678 0.29306,0.03682 v 3.84e-4 c 1.8e-5,1.61e-4 -2e-6,6.05e-4 0,7.67e-4 2.67e-4,0.02071 -0.593355,1.37706 -1.319154,3.014222 l -1.319537,2.97663 -0.315691,7.66e-4 -0.316076,7.68e-4 -0.09168,-0.213658 c -0.138169,-0.32161 -0.740584,-1.685956 -1.525906,-3.454962 -0.3865,-0.870626 -0.778745,-1.758863 -0.871509,-1.974319 z m -18.53144,0.0042 h 0.822408 0.82241 l 0.0058,2.876898 c 0.003,1.582321 0.0091,2.933622 0.01266,3.002714 l 0.0069,0.125433 -0.917156,0.01381 -0.917154,0.01343 v -1.357896 c 0,-0.746872 -0.01719,-1.35739 -0.03798,-1.356744 -0.02071,7.12e-4 -0.321045,0.481224 -0.66744,1.067904 l -0.629849,1.066753 -0.456084,0.01419 -0.456467,0.01458 -0.647495,-1.044123 -0.647493,-1.044121 -0.01343,1.318769 -0.01343,1.31877 h -0.929046 -0.928663 v -3.014605 -3.015372 l 0.841589,0.0015 0.841972,0.0015 0.975843,1.608378 c 0.773186,1.27414 0.988628,1.594977 1.036067,1.543552 0.03296,-0.0357 0.473139,-0.760402 0.978146,-1.610296 z m 2.700064,3.84e-4 h 2.437307 2.437308 v 0.753747 0.753747 h -1.457245 -1.457627 v 0.377065 0.376683 h 1.281561 1.281562 v 0.728829 0.728814 h -1.281562 -1.281561 v 0.401232 0.401231 l 1.516316,0.01343 1.516317,0.01304 0.0038,0.741472 0.0038,0.741089 h -2.500216 -2.500216 l 3.84e-4,-3.014989 z m 5.377113,0 h 2.76374 2.764123 v 0.779063 0.778681 h -0.879564 -0.879563 v 2.236308 2.236309 H 55.203807 54.19881 v -2.236309 -2.236308 h -0.879563 -0.87918 v -0.778681 z m 7.202217,0 h 0.990037 0.990036 l 0.367859,0.841972 c 0.20231,0.462956 0.467528,1.067697 0.589189,1.344087 0.12166,0.276389 0.353383,0.80793 0.515157,1.181062 0.161766,0.373124 0.486608,1.119292 0.721526,1.658243 l 0.426931,0.97968 -0.987735,0.01381 c -0.543375,0.0075 -1.012505,0.0046 -1.042204,-0.0073 -0.02969,-0.01136 -0.390484,-0.88265 -0.801695,-1.93596 -0.411211,-1.053302 -0.764024,-1.914864 -0.784051,-1.914864 -0.02004,0 -0.383337,0.870332 -0.807449,1.934427 l -0.771008,1.934809 h -1.018039 c -0.55689,0 -1.013213,-0.0068 -1.018038,-0.01496 0.0021,-0.01282 0.139237,-0.333052 0.306485,-0.715772 0.168536,-0.385647 0.380216,-0.870587 0.470277,-1.077878 0.35099,-0.807888 1.728788,-3.952567 1.789047,-4.083276 z m 9.807152,0 h 0.306102 0.306102 l 1.339868,2.935586 c 0.737074,1.614499 1.354117,2.97115 1.370937,3.014989 0.02605,0.06784 -0.01899,0.07979 -0.301499,0.07979 -0.178329,0 -0.325025,-0.01897 -0.331802,-0.04181 V 46.3797 c -1.8e-5,-1.84e-4 0,-5.82e-4 0,-7.67e-4 0,-0.0409 -0.600271,-1.389291 -2.111259,-4.744196 -0.138423,-0.307347 -0.262704,-0.552883 -0.286539,-0.568091 -1.84e-4,-9.5e-5 -9.81e-4,-3.21e-4 -0.0012,-3.83e-4 h -3.83e-4 -3.84e-4 -3.84e-4 -3.83e-4 v 3.83e-4 c -0.01269,0.01269 -0.558128,1.217192 -1.212133,2.676666 l -1.189118,2.653266 -0.313007,0.01534 c -0.16401,0.0079 -0.299887,0.0057 -0.312239,-0.0035 v -3.84e-4 h -3.83e-4 v -3.83e-4 -3.83e-4 -3.84e-4 c 0,-0.01982 0.290497,-0.658111 1.605692,-3.527843 0.392669,-0.856805 0.807966,-1.766994 0.922909,-2.022652 z m 24.39839,0 h 2.439995 2.439997 l -0.0153,0.263907 -0.0149,0.263908 -1.065991,0.01343 -1.065988,0.01381 0.01036,2.737656 0.01074,2.737656 H 96.272864 95.958706 V 43.6831 40.944292 H 94.903459 93.847826 V 40.668111 Z M 78.77212,40.937755 v 1.535881 1.536263 l 0.816655,-0.0015 c 0.449134,-7.43e-4 0.98643,-0.0236 1.19372,-0.05025 0.939065,-0.120822 1.457245,-0.64756 1.457245,-1.481027 0,-0.666646 -0.239423,-1.065111 -0.792106,-1.342169 -0.472976,-0.237101 -0.995018,-0.174496 -1.505576,-0.181436 z"
       sodipodi:nodetypes="sccsssssscccccsccscsscccssssssccccccssssccccccccsscssscccssscccccccccscccsscsssccccccccccccssssssccccccccsssscccccssscccccssccsccscccccsscccccccccscscccccccccccccccccccccccccccccccccccccccccccccccccccccccccccccccssccccssccscsscccccccsccsscccccccccccccccssccccccccccccccccccccccccsscc" /></g></svg>
