<?xml version="1.0" encoding="UTF-8" standalone="no"?>
<!-- Created with Inkscape (http://www.inkscape.org/) -->

<svg
   width="512"
   height="288"
   viewBox="0 0 135.46666 76.2"
   version="1.1"
   id="svg1"
   xml:space="preserve"
   inkscape:version="1.4.2 (f4327f4, 2025-05-13)"
   sodipodi:docname="smythson.svg"
   xmlns:inkscape="http://www.inkscape.org/namespaces/inkscape"
   xmlns:sodipodi="http://sodipodi.sourceforge.net/DTD/sodipodi-0.dtd"
   xmlns="http://www.w3.org/2000/svg"
   xmlns:svg="http://www.w3.org/2000/svg"><sodipodi:namedview
     id="namedview1"
     pagecolor="#505050"
     bordercolor="#eeeeee"
     borderopacity="1"
     inkscape:showpageshadow="0"
     inkscape:pageopacity="0"
     inkscape:pagecheckerboard="0"
     inkscape:deskcolor="#505050"
     inkscape:document-units="mm"
     inkscape:zoom="1.0396254"
     inkscape:cx="447.75742"
     inkscape:cy="69.736656"
     inkscape:window-width="2560"
     inkscape:window-height="1406"
     inkscape:window-x="-11"
     inkscape:window-y="-11"
     inkscape:window-maximized="1"
     inkscape:current-layer="layer1" /><defs
     id="defs1"><clipPath
       clipPathUnits="userSpaceOnUse"
       id="clipPath1"><rect
         style="fill:#800000;stroke-width:0.264583"
         id="rect2"
         width="131.06683"
         height="133.35732"
         x="-46.318764"
         y="18.578405" /></clipPath></defs><g
     inkscape:label="Layer 1"
     inkscape:groupmode="layer"
     id="layer1"><path
       id="rect3"
       style="fill:#000000;stroke-width:0.155725"
       d="M 0,0 V 76.2 H 135.46667 V 0 Z m 43.587671,29.980072 c 0.11602,-0.01295 1.356605,1.340915 1.497642,1.638463 0.01214,0.02564 -0.541601,0.710086 -1.230597,1.520757 -1.452566,1.70905 -1.452579,1.377606 6.09e-4,3.262327 0.505445,0.655524 0.932345,1.215502 0.948648,1.244283 0.01635,0.02879 -0.313677,0.449568 -0.733309,0.934961 -0.55595,0.643076 -0.807857,0.837665 -0.928878,0.716885 -0.07259,-0.07245 -2.047814,-2.678262 -2.53419,-3.299738 -0.486387,-0.621475 -0.88034,-1.21523 -0.875043,-1.319713 0.0079,-0.163086 3.54722,-4.480146 3.850556,-4.696704 1.62e-4,-1.18e-4 4.41e-4,-2.04e-4 6.08e-4,-3.05e-4 10e-4,-5.15e-4 0.0026,-0.0011 0.004,-0.0012 z M 92.1062,33.141116 c 0.281171,0.0014 0.89509,0.721344 2.101379,2.402188 0.93234,1.299112 1.754977,2.354041 1.827948,2.344094 0.07299,-0.01 0.126077,-0.959672 0.118014,-2.110506 -0.01644,-2.337236 0.05987,-2.740874 0.482079,-2.55335 0.225039,0.09996 0.286191,0.730662 0.311146,3.205146 0.03371,3.341438 0.03902,3.231541 -0.16029,3.308255 -0.314278,0.120962 -0.664871,-0.259224 -2.18289,-2.368731 -0.87808,-1.220215 -1.674572,-2.206095 -1.770162,-2.190498 -0.097,0.01582 -0.171138,1.008315 -0.168195,2.246158 0.0052,2.012234 -0.02335,2.224483 -0.309016,2.290868 -0.173163,0.04019 -0.352536,0.05631 -0.398444,0.03589 -0.0814,-0.03617 -0.116454,-5.829447 -0.03832,-6.340643 0.02692,-0.176073 0.08505,-0.269393 0.186753,-0.26887 z m -5.04587,0.07695 c 1.539448,-0.0392 3.115212,1.101348 3.159825,3.084703 0.0571,2.539527 -2.0656,4.127238 -4.242911,3.173515 -1.572516,-0.68879 -2.253773,-2.662287 -1.523494,-4.412932 0.516999,-1.239354 1.553266,-1.818465 2.60658,-1.845286 z m -5.920005,0.05383 c 0.97138,0.01585 1.899178,0.458805 1.670399,0.973892 -0.06788,0.15284 -0.267161,0.130865 -0.746691,-0.08212 -1.135832,-0.50448 -2.38505,-0.06226 -2.320066,0.821209 0.04421,0.601158 0.33227,0.82908 1.668574,1.321842 1.271944,0.469036 1.274255,0.470758 1.516498,1.100115 0.197724,0.513726 0.190568,0.747044 -0.03771,1.261012 -0.467271,1.05206 -1.781137,1.376783 -3.136105,0.774977 -0.824189,-0.366066 -1.022219,-0.576464 -0.802047,-0.852232 0.148643,-0.186194 0.288645,-0.162238 0.827291,0.141735 1.150493,0.649244 2.460094,0.311085 2.512595,-0.649059 0.01434,-0.26209 -0.02855,-0.558902 -0.0952,-0.6594 -0.06664,-0.10051 -0.727073,-0.403678 -1.467834,-0.673696 l -1.346782,-0.4909 -0.242713,-0.630201 c -0.201994,-0.524756 -0.192818,-0.742483 0.05505,-1.300552 0.257934,-0.580747 0.391351,-0.702953 1.000049,-0.917016 0.292276,-0.102785 0.620901,-0.144903 0.944694,-0.139605 z m -4.120946,0.04775 c 0.295203,-0.0037 0.373665,0.495053 0.346732,1.931057 -0.01725,0.91782 -0.03857,2.291796 -0.04775,3.053376 -0.01391,1.155725 -0.05837,1.382552 -0.268261,1.371722 -0.455181,-0.0235 -0.478806,-0.101496 -0.442845,-1.461143 0.01959,-0.741038 -0.0104,-1.367754 -0.06661,-1.392709 -0.184434,-0.08192 -3.049145,-0.0091 -3.088049,0.07847 -0.02089,0.04702 -0.04646,0.628528 -0.05688,1.292339 -0.01039,0.663817 -0.0883,1.276748 -0.173367,1.36199 -0.44524,0.446147 -0.554412,-0.201549 -0.520099,-3.089874 0.02956,-2.491382 0.08468,-3.073994 0.293507,-3.104776 0.394158,-0.05812 0.481085,0.02324 0.460485,0.430678 -0.01048,0.206228 -0.01888,0.814318 -0.01886,1.35104 v 0.975717 l 1.499162,-0.0012 c 0.824568,-7.48e-4 1.543687,-0.04998 1.598012,-0.109494 0.05431,-0.05952 0.107416,-0.663512 0.11801,-1.34222 0.01301,-0.829882 0.08745,-1.260257 0.226897,-1.313934 0.05134,-0.01976 0.09774,-0.0305 0.13991,-0.03102 z m -5.962888,0.07999 c 0.471539,0.03598 0.490867,0.128731 0.531049,0.314189 0.06557,0.302546 -0.01603,0.335723 -0.816038,0.333958 -0.488895,-0.0011 -0.915924,0.0084 -0.948648,0.02099 -0.03274,0.0126 -0.07383,0.931282 -0.09155,2.041464 -0.06001,3.763491 -0.0405,3.597661 -0.422466,3.555225 -0.182097,-0.02021 -0.338404,-0.06642 -0.347645,-0.102499 -0.0092,-0.03608 0.0092,-1.204326 0.04106,-2.595932 0.03184,-1.391612 0.02734,-2.616565 -0.01004,-2.722154 -0.04242,-0.119817 -0.370735,-0.181487 -0.873219,-0.164242 -0.636726,0.02183 -0.811844,-0.02175 -0.837329,-0.208648 -0.06887,-0.50478 -0.454624,-0.01628 -1.410654,1.787193 -0.952816,1.797383 -0.987026,1.893318 -1.01769,2.851419 -0.02108,0.658509 -0.100618,1.017622 -0.23663,1.070005 -0.37227,0.143287 -0.514214,-0.223284 -0.47113,-1.215693 0.04361,-1.005017 0.0757,-0.919721 -1.673745,-4.437873 -0.164794,-0.331393 -0.153641,-0.404448 0.066,-0.436761 0.145052,-0.02134 0.305181,-0.02149 0.355857,-3.04e-4 0.05074,0.0211 0.422446,0.719285 0.826075,1.55178 0.403623,0.832496 0.793168,1.505705 0.865615,1.495817 0.07245,-0.0099 0.492671,-0.706764 0.933744,-1.548435 L 66.321155,33.45895 67.8118,33.4258 c 1.849278,-0.04127 2.773148,-0.06214 3.244686,-0.02616 z M 56.20174,33.503361 c 0.222731,0.0033 0.360732,0.28598 1.694123,3.203322 0.383635,0.839364 0.420639,0.876172 0.680387,0.673999 0.151091,-0.117608 0.530198,-0.776402 0.842499,-1.46388 1.503493,-3.309811 1.837245,-3.230983 1.725146,0.407867 -0.04637,1.505747 -0.09211,2.867613 -0.101586,3.026609 -0.02195,0.368161 -0.56847,0.372807 -0.623206,0.0055 -0.0209,-0.140073 -0.01075,-0.948258 0.02251,-1.795709 0.03325,-0.847445 -0.0042,-1.605102 -0.08303,-1.683782 -0.149326,-0.149026 -0.859282,0.989546 -1.466314,2.350482 -0.252273,0.565711 -0.345001,0.65628 -0.568763,0.5569 -0.14696,-0.06528 -0.304602,-0.252668 -0.350687,-0.416078 -0.217241,-0.770702 -1.096516,-2.405666 -1.280173,-2.380593 -0.14188,0.01936 -0.226837,0.541445 -0.275865,1.697164 -0.03893,0.918144 -0.136304,1.736104 -0.216556,1.817609 -0.407641,0.414123 -0.499769,-0.2654 -0.406346,-2.995282 0.08407,-2.455621 0.147277,-2.980599 0.36194,-3.00167 0.01598,-0.0015 0.03108,-0.0027 0.04593,-0.0024 z m -3.374559,0.04501 c 0.483373,0.0084 0.96881,0.131735 1.242458,0.34582 0.467771,0.365961 0.251529,0.727035 -0.291073,0.486034 -1.142918,-0.507629 -2.238431,-0.07805 -2.209355,0.866223 0.0137,0.444764 0.05262,0.476722 1.254016,1.011607 1.143336,0.509348 1.255982,0.59394 1.444719,1.0843 0.28984,0.753033 0.01075,1.628612 -0.626248,1.964514 -0.670951,0.353817 -1.430903,0.369321 -2.163124,0.0441 -0.694478,-0.30844 -0.874156,-0.497874 -0.746083,-0.786232 0.06324,-0.142374 0.27367,-0.109196 0.757944,0.119227 0.764316,0.360543 1.294548,0.364669 1.837379,0.0146 0.32387,-0.208872 0.375546,-0.311799 0.364069,-0.726922 -0.01294,-0.468065 -0.05499,-0.504665 -1.309979,-1.144522 -1.153207,-0.587974 -1.310241,-0.712001 -1.419779,-1.120797 -0.254073,-0.948243 0.149189,-1.738124 1.043543,-2.043897 0.242337,-0.08285 0.531489,-0.11906 0.821513,-0.114057 z m 34.414116,0.364069 c -1.867469,-0.04715 -3.173056,2.57103 -1.725451,4.316516 0.396802,0.478454 0.662552,0.668218 1.0697,0.764637 0.686674,0.162616 1.817415,-0.184123 2.248895,-0.689816 1.090777,-1.278395 0.6756,-3.557912 -0.764634,-4.197592 -0.283319,-0.125836 -0.56173,-0.187011 -0.82851,-0.193745 z m -46.241041,3.217921 c 0.02931,-0.0011 0.05371,0.0078 0.073,0.02707 1.575795,1.572587 2.560241,3.448784 2.75774,3.70943 0.443334,0.585067 0.781075,1.104903 0.750646,1.155167 -0.08644,0.142716 -3.977028,4.646262 -4.047951,4.685755 -0.136965,0.07621 -1.439434,-1.896582 -1.327924,-2.011352 0.435906,-0.448749 2.399603,-2.816599 2.378768,-2.868452 -0.06116,-0.15211 -1.846776,-2.55241 -2.045418,-2.749528 -0.148902,-0.147725 -0.153352,-0.2838 -0.01399,-0.423379 0.112887,-0.113076 0.472901,-0.530436 0.800222,-0.927661 0.325787,-0.395367 0.547892,-0.592165 0.674912,-0.59705 z m 38.924984,4.16292 c 0.01438,-1.76e-4 0.02968,4.61e-4 0.04593,0.0015 0.118449,0.0078 0.203654,0.477758 0.208952,1.151822 0.0048,0.626308 0.09405,1.146927 0.198306,1.156991 0.104236,0.01006 0.412679,-0.20265 0.685557,-0.47265 0.272873,-0.270006 0.608362,-0.533914 0.745475,-0.586709 0.435712,-0.167707 0.367637,0.151315 -0.137172,0.642976 -0.268423,0.261437 -0.510106,0.524732 -0.536827,0.584883 -0.02672,0.06015 0.209123,0.479173 0.523749,0.931312 0.314631,0.452132 0.546995,0.878406 0.516448,0.947127 -0.105395,0.237299 -0.559944,-0.100657 -0.924315,-0.687078 -0.201067,-0.323595 -0.426084,-0.615 -0.500025,-0.647842 -0.219307,-0.09741 -0.635377,0.548325 -0.606478,0.941348 0.0147,0.200066 -0.02282,0.382921 -0.08364,0.406346 -0.317903,0.122358 -0.42561,-0.452625 -0.39783,-2.121759 0.03405,-2.043839 0.04621,-2.245167 0.261874,-2.248287 z m 7.162764,0.0027 c 0.389568,-0.02499 0.699914,0.158549 0.596744,0.390834 -0.05215,0.117678 -0.1871,0.172356 -0.299893,0.122269 -0.279653,-0.124212 -0.503144,0.05339 -0.545345,0.433415 -0.02875,0.258776 0.0377,0.319961 0.366202,0.337912 0.273143,0.01493 0.410344,0.08848 0.429767,0.230851 0.01567,0.115001 -0.04023,0.203555 -0.124094,0.196786 -0.622782,-0.05027 -0.671062,0.04271 -0.697725,1.340699 -0.02924,1.422653 -0.01993,1.358205 -0.208344,1.430728 -0.288584,0.111069 -0.330078,-0.07399 -0.310538,-1.384192 0.0162,-1.085209 -0.0358,-1.357394 -0.263699,-1.383585 -0.187563,-0.02155 -0.25004,-0.10821 -0.18462,-0.255487 0.05449,-0.122671 0.157285,-0.197496 0.228113,-0.166067 0.07084,0.03146 0.211022,-0.224368 0.311756,-0.568763 0.145653,-0.497782 0.25447,-0.641509 0.530744,-0.701373 0.05791,-0.01254 0.115253,-0.02044 0.170932,-0.02403 z m -8.715456,0.02707 c 0.0331,-4.41e-4 0.06517,0.0051 0.09398,0.01794 0.115264,0.05119 0.181395,0.214765 0.146905,0.363461 -0.04396,0.189694 -0.153666,0.229952 -0.368023,0.134739 -0.214345,-0.0952 -0.258192,-0.203677 -0.146905,-0.363461 0.06542,-0.09394 0.174729,-0.151389 0.27404,-0.152684 z m -6.726003,0.09155 c 0.186367,0.0064 0.368743,0.04298 0.530136,0.114665 0.338171,0.150208 0.458169,0.281879 0.392355,0.430069 -0.06152,0.138514 -0.233501,0.151632 -0.489988,0.03771 -0.789353,-0.350593 -1.640021,0.13157 -1.33127,0.7546 0.06805,0.137366 0.48651,0.393102 0.929791,0.568154 0.61662,0.243544 0.84715,0.411374 0.981496,0.714452 0.226146,0.510195 -0.09501,1.260398 -0.612257,1.430423 -0.718477,0.236175 -2.110146,-0.264531 -1.920716,-0.691031 0.07158,-0.161144 0.195029,-0.139697 0.530136,0.09125 0.351399,0.242179 0.548643,0.266514 1.009174,0.125311 0.472033,-0.14473 0.565156,-0.232792 0.530137,-0.502762 -0.03196,-0.24621 -0.272322,-0.450559 -0.968723,-0.823947 -1.02049,-0.547133 -1.225637,-0.91023 -0.912454,-1.615347 0.177348,-0.399319 0.773083,-0.652788 1.332183,-0.633547 z m 2.149438,0.354031 c 0.0464,-0.002 0.106777,0.01632 0.186444,0.05171 0.164447,0.07304 0.253133,0.22333 0.201044,0.34065 -0.06989,0.157342 0.02323,0.235757 0.371673,0.313884 0.539698,0.121021 0.51789,0.359009 -0.04167,0.45501 l -0.379581,0.06509 -0.0012,0.999441 c -0.0011,0.950633 0.02124,1.004062 0.457748,1.10194 0.598816,0.134277 0.463058,0.550055 -0.14508,0.444365 -0.601,-0.104447 -0.747749,-0.407999 -0.786535,-1.629338 -0.01886,-0.594013 -0.09581,-1.056136 -0.171237,-1.027119 -0.07537,0.02895 -0.188824,-0.02317 -0.252142,-0.115882 -0.08461,-0.123735 -0.04964,-0.20121 0.131697,-0.291073 0.13593,-0.06736 0.263772,-0.272405 0.284078,-0.455314 0.0191,-0.171904 0.0562,-0.249474 0.144776,-0.253359 z m 2.208747,0.665484 c 0.07414,-0.0011 0.18601,0.0262 0.302326,0.07786 0.186106,0.08268 0.464219,0.08779 0.618036,0.01156 0.189884,-0.0941 0.305378,-0.0713 0.360115,0.07087 0.05472,0.142157 -0.03347,0.260062 -0.274953,0.367111 -0.46929,0.208016 -0.68094,0.720648 -0.673695,1.632076 v 3.04e-4 c 0.007,0.883015 -0.07682,1.13447 -0.339737,1.01769 -0.163669,-0.07269 -0.231632,-2.815794 -0.07786,-3.144316 0.01021,-0.02182 0.04129,-0.03251 0.08577,-0.03315 z m 2.468492,0.08638 c 0.04588,0.0014 0.07642,0.0078 0.0806,0.01886 0.0083,0.02204 0.0089,0.746694 0.0012,1.610177 -0.01219,1.37588 -0.04568,1.555743 -0.270999,1.455668 -0.356174,-0.158183 -0.340539,-3.024715 0.01673,-3.073449 0.06543,-0.0089 0.126575,-0.01261 0.172454,-0.01125 z m 5.371009,0.01034 c 0.551402,-0.02235 1.095633,0.339912 1.341916,0.941044 0.135398,0.330511 0.220935,0.657734 0.190094,0.727226 -0.03086,0.0695 -0.513996,0.121522 -1.073655,0.115577 -1.095938,-0.01165 -1.369384,0.198518 -0.884168,0.679779 0.330093,0.327391 0.479953,0.342233 1.171592,0.116794 0.575259,-0.187518 0.767024,0.157404 0.25792,0.463831 -0.521584,0.313919 -1.405995,0.184243 -1.778677,-0.260962 -0.71155,-0.850023 -0.490042,-2.363597 0.395701,-2.704514 0.124454,-0.04791 0.25203,-0.0736 0.379277,-0.07878 z m 5.503924,0.07452 c 0.78049,-0.0123 1.110065,0.660222 1.116539,2.168599 0.0024,0.551057 -0.0063,1.026361 -0.01946,1.056013 -0.02654,0.05976 -0.295044,-0.04163 -0.331829,-0.12531 -0.0128,-0.02911 -0.270595,0.0097 -0.572719,0.08638 -0.657125,0.166771 -1.28062,-0.07267 -1.427079,-0.548385 -0.254986,-0.828228 0.07515,-1.200172 1.114714,-1.256145 0.605867,-0.03261 0.692292,-0.08228 0.670044,-0.384447 -0.03464,-0.471069 -0.44534,-0.619783 -1.149692,-0.416079 -0.837799,0.242302 -0.851571,-0.195193 -0.0146,-0.464439 0.229701,-0.07389 0.433969,-0.113361 0.614083,-0.116186 z m 3.389462,0.01399 c 0.177188,-0.0017 0.386283,0.09384 0.406648,0.243017 0.01839,0.134823 -0.1133,0.252286 -0.330305,0.294722 -0.439166,0.08584 -0.751284,0.718866 -0.708672,1.43742 0.06496,1.094738 0.0065,1.358789 -0.272525,1.234854 -0.186588,-0.08289 -0.254038,-0.507855 -0.245445,-1.547826 0.0065,-0.7885 0.04205,-1.501093 0.07877,-1.583716 0.0367,-0.08266 0.22677,-0.07932 0.422463,0.0076 0.195687,0.08693 0.381051,0.100922 0.412128,0.03102 0.0356,-0.08015 0.130621,-0.116098 0.236934,-0.117098 z m 2.31733,0.0441 c 0.09001,-0.0027 0.18324,0.0036 0.279512,0.02038 0.522413,0.09079 1.064462,0.668278 1.15669,1.232421 0.09418,0.576023 -0.0187,0.637941 -1.025904,0.564505 -1.293321,-0.0943 -1.607505,0.204263 -0.840977,0.799006 0.247846,0.192303 0.482886,0.210028 0.957772,0.07269 0.656578,-0.18989 0.967495,0.03284 0.515233,0.368935 -0.414905,0.308335 -1.27634,0.285037 -1.759214,-0.04775 -1.242386,-0.856218 -0.633341,-2.969909 0.716888,-3.010185 z M 84.17758,43.03516 c -0.0684,0.0019 -0.151238,0.01333 -0.257616,0.03072 -0.441073,0.07211 -0.791034,0.490616 -0.61986,0.741217 0.0451,0.06602 0.404943,0.119187 0.799614,0.11801 0.394671,-0.0012 0.732341,-0.03581 0.750645,-0.07695 0.01828,-0.04116 -0.08025,-0.250826 -0.218988,-0.46596 -0.175256,-0.271782 -0.248587,-0.352863 -0.453795,-0.347037 z m 10.952186,0.09824 c -0.325266,-0.0088 -0.660103,0.157154 -0.813602,0.502762 -0.183092,0.412236 -0.07414,0.463795 0.909104,0.43007 0.735969,-0.02524 0.773467,-0.04727 0.661533,-0.387793 -0.115989,-0.35285 -0.431768,-0.536287 -0.757035,-0.545039 z m -5.71409,1.27196 c -0.06976,-0.0036 -0.143687,-0.0035 -0.218077,9.13e-4 -0.395647,0.02348 -0.56622,0.121157 -0.635071,0.363765 -0.10908,0.384224 0.3644,0.760257 0.802048,0.636893 0.318693,-0.08983 0.625867,-0.663902 0.474175,-0.885993 -0.04135,-0.06055 -0.21381,-0.104742 -0.423075,-0.115578 z"
       sodipodi:nodetypes="ccccccccscssscscccssccssssscccsssscssssssssssssssscccsssscccsscscsccccccscsccsccsccccsccssccsscsscccsscssccscsscscsccccccsssscsscscsssssssssssssscscccccsssscccsscssscsssccccsccsssssssssccssssccssssssssccsssssccsscscscccsssccssccscsscsssssssccscsssssssssssssscssssscssssssccsscscssscsssssssscssccsccssscsscsss" /></g></svg>
